ISO-10303-21;
HEADER;
/* Generated by software containing ST-Developer
 * from STEP Tools, Inc. (www.steptools.com) 
 */
/* OPTION: using custom renumber hook */

FILE_DESCRIPTION(
/* description */ ('STEP AP242 Edition 2',
'CAx-IF Rec.Pracs.---Representation and Presentation of Product Manufa
cturing Information (PMI)---4.0---2014-10-13',
'CAx-IF Rec.Pracs.---3D Tessellated Geometry---0.4---2014-09-14','2;1',
'CAx-IF Rec.Pracs.---User Defined Attributes---1.5---2016-08-15'),
/* implementation_level */ '2;1');

FILE_NAME(
/* name */ 'first stage full - Part 11',
/* time_stamp */ '2026-08-27T11:59:14Z',
/* author */ (''),
/* organization */ (''),
/* preprocessor_version */ 'ST-DEVELOPER v20',
/* originating_system */ 'ONSHAPE BY PTC INC, 1.219',
/* authorisation */ '  ');

FILE_SCHEMA (('AP242_MANAGED_MODEL_BASED_3D_ENGINEERING_MIM_LF { 1 0 10303 442 3 1 4 }'));
ENDSEC;

DATA;
#10=SHAPE_REPRESENTATION_RELATIONSHIP('','',#781,#11);
#11=ADVANCED_BREP_SHAPE_REPRESENTATION('',(#779),#1279);
#12=CYLINDRICAL_SURFACE('',#832,0.002);
#13=CYLINDRICAL_SURFACE('',#833,0.002);
#14=CYLINDRICAL_SURFACE('',#834,0.002);
#15=CYLINDRICAL_SURFACE('',#835,0.002);
#16=CYLINDRICAL_SURFACE('',#836,0.002);
#17=CYLINDRICAL_SURFACE('',#837,0.002);
#18=CYLINDRICAL_SURFACE('',#838,0.002);
#19=CYLINDRICAL_SURFACE('',#839,0.002);
#20=CYLINDRICAL_SURFACE('',#840,0.0022);
#21=CYLINDRICAL_SURFACE('',#841,0.0022);
#22=CYLINDRICAL_SURFACE('',#842,0.0022);
#23=CYLINDRICAL_SURFACE('',#843,0.0022);
#24=CYLINDRICAL_SURFACE('',#844,0.0022);
#25=CYLINDRICAL_SURFACE('',#845,0.0022);
#26=CYLINDRICAL_SURFACE('',#846,0.0022);
#27=CYLINDRICAL_SURFACE('',#847,0.0022);
#28=CIRCLE('',#784,0.0022);
#29=CIRCLE('',#785,0.0022);
#30=CIRCLE('',#786,0.0022);
#31=CIRCLE('',#787,0.0022);
#32=CIRCLE('',#789,0.0022);
#33=CIRCLE('',#790,0.0022);
#34=CIRCLE('',#791,0.0022);
#35=CIRCLE('',#792,0.0022);
#36=CIRCLE('',#794,0.002);
#37=CIRCLE('',#795,0.002);
#38=CIRCLE('',#796,0.002);
#39=CIRCLE('',#797,0.002);
#40=CIRCLE('',#799,0.002);
#41=CIRCLE('',#800,0.002);
#42=CIRCLE('',#801,0.002);
#43=CIRCLE('',#802,0.002);
#44=CIRCLE('',#804,0.002);
#45=CIRCLE('',#805,0.002);
#46=CIRCLE('',#806,0.002);
#47=CIRCLE('',#807,0.002);
#48=CIRCLE('',#809,0.002);
#49=CIRCLE('',#810,0.002);
#50=CIRCLE('',#811,0.002);
#51=CIRCLE('',#812,0.002);
#52=CIRCLE('',#814,0.0022);
#53=CIRCLE('',#815,0.0022);
#54=CIRCLE('',#816,0.0022);
#55=CIRCLE('',#817,0.0022);
#56=CIRCLE('',#819,0.0022);
#57=CIRCLE('',#820,0.0022);
#58=CIRCLE('',#821,0.0022);
#59=CIRCLE('',#822,0.0022);
#60=ORIENTED_EDGE('',*,*,#260,.T.);
#61=ORIENTED_EDGE('',*,*,#261,.F.);
#62=ORIENTED_EDGE('',*,*,#262,.F.);
#63=ORIENTED_EDGE('',*,*,#263,.F.);
#64=ORIENTED_EDGE('',*,*,#264,.F.);
#65=ORIENTED_EDGE('',*,*,#265,.F.);
#66=ORIENTED_EDGE('',*,*,#266,.F.);
#67=ORIENTED_EDGE('',*,*,#267,.F.);
#68=ORIENTED_EDGE('',*,*,#268,.T.);
#69=ORIENTED_EDGE('',*,*,#269,.T.);
#70=ORIENTED_EDGE('',*,*,#270,.F.);
#71=ORIENTED_EDGE('',*,*,#271,.T.);
#72=ORIENTED_EDGE('',*,*,#272,.F.);
#73=ORIENTED_EDGE('',*,*,#273,.F.);
#74=ORIENTED_EDGE('',*,*,#274,.F.);
#75=ORIENTED_EDGE('',*,*,#275,.F.);
#76=ORIENTED_EDGE('',*,*,#268,.F.);
#77=ORIENTED_EDGE('',*,*,#276,.T.);
#78=ORIENTED_EDGE('',*,*,#262,.T.);
#79=ORIENTED_EDGE('',*,*,#277,.T.);
#80=ORIENTED_EDGE('',*,*,#278,.F.);
#81=ORIENTED_EDGE('',*,*,#279,.T.);
#82=ORIENTED_EDGE('',*,*,#280,.T.);
#83=ORIENTED_EDGE('',*,*,#281,.T.);
#84=ORIENTED_EDGE('',*,*,#282,.T.);
#85=ORIENTED_EDGE('',*,*,#283,.T.);
#86=ORIENTED_EDGE('',*,*,#284,.F.);
#87=ORIENTED_EDGE('',*,*,#285,.T.);
#88=ORIENTED_EDGE('',*,*,#286,.F.);
#89=ORIENTED_EDGE('',*,*,#270,.T.);
#90=ORIENTED_EDGE('',*,*,#287,.F.);
#91=ORIENTED_EDGE('',*,*,#260,.F.);
#92=ORIENTED_EDGE('',*,*,#288,.F.);
#93=ORIENTED_EDGE('',*,*,#289,.T.);
#94=ORIENTED_EDGE('',*,*,#290,.T.);
#95=ORIENTED_EDGE('',*,*,#291,.T.);
#96=ORIENTED_EDGE('',*,*,#292,.T.);
#97=ORIENTED_EDGE('',*,*,#293,.T.);
#98=ORIENTED_EDGE('',*,*,#294,.F.);
#99=ORIENTED_EDGE('',*,*,#295,.T.);
#100=ORIENTED_EDGE('',*,*,#296,.F.);
#101=ORIENTED_EDGE('',*,*,#297,.T.);
#102=ORIENTED_EDGE('',*,*,#298,.T.);
#103=ORIENTED_EDGE('',*,*,#299,.T.);
#104=ORIENTED_EDGE('',*,*,#300,.T.);
#105=ORIENTED_EDGE('',*,*,#301,.T.);
#106=ORIENTED_EDGE('',*,*,#302,.F.);
#107=ORIENTED_EDGE('',*,*,#303,.T.);
#108=ORIENTED_EDGE('',*,*,#304,.T.);
#109=ORIENTED_EDGE('',*,*,#305,.T.);
#110=ORIENTED_EDGE('',*,*,#306,.F.);
#111=ORIENTED_EDGE('',*,*,#307,.T.);
#112=ORIENTED_EDGE('',*,*,#308,.F.);
#113=ORIENTED_EDGE('',*,*,#309,.T.);
#114=ORIENTED_EDGE('',*,*,#310,.F.);
#115=ORIENTED_EDGE('',*,*,#311,.T.);
#116=ORIENTED_EDGE('',*,*,#312,.T.);
#117=ORIENTED_EDGE('',*,*,#313,.T.);
#118=ORIENTED_EDGE('',*,*,#314,.T.);
#119=ORIENTED_EDGE('',*,*,#315,.T.);
#120=ORIENTED_EDGE('',*,*,#316,.T.);
#121=ORIENTED_EDGE('',*,*,#317,.F.);
#122=ORIENTED_EDGE('',*,*,#318,.F.);
#123=ORIENTED_EDGE('',*,*,#319,.F.);
#124=ORIENTED_EDGE('',*,*,#320,.F.);
#125=ORIENTED_EDGE('',*,*,#321,.F.);
#126=ORIENTED_EDGE('',*,*,#322,.F.);
#127=ORIENTED_EDGE('',*,*,#323,.F.);
#128=ORIENTED_EDGE('',*,*,#318,.T.);
#129=ORIENTED_EDGE('',*,*,#324,.T.);
#130=ORIENTED_EDGE('',*,*,#304,.F.);
#131=ORIENTED_EDGE('',*,*,#325,.T.);
#132=ORIENTED_EDGE('',*,*,#326,.T.);
#133=ORIENTED_EDGE('',*,*,#327,.T.);
#134=ORIENTED_EDGE('',*,*,#328,.T.);
#135=ORIENTED_EDGE('',*,*,#329,.T.);
#136=ORIENTED_EDGE('',*,*,#306,.T.);
#137=ORIENTED_EDGE('',*,*,#330,.F.);
#138=ORIENTED_EDGE('',*,*,#316,.F.);
#139=ORIENTED_EDGE('',*,*,#331,.F.);
#140=ORIENTED_EDGE('',*,*,#271,.F.);
#141=ORIENTED_EDGE('',*,*,#286,.T.);
#142=ORIENTED_EDGE('',*,*,#263,.T.);
#143=ORIENTED_EDGE('',*,*,#276,.F.);
#144=ORIENTED_EDGE('',*,*,#325,.F.);
#145=ORIENTED_EDGE('',*,*,#307,.F.);
#146=ORIENTED_EDGE('',*,*,#331,.T.);
#147=ORIENTED_EDGE('',*,*,#319,.T.);
#148=ORIENTED_EDGE('',*,*,#280,.F.);
#149=ORIENTED_EDGE('',*,*,#332,.T.);
#150=ORIENTED_EDGE('',*,*,#310,.T.);
#151=ORIENTED_EDGE('',*,*,#333,.T.);
#152=ORIENTED_EDGE('',*,*,#312,.F.);
#153=ORIENTED_EDGE('',*,*,#334,.T.);
#154=ORIENTED_EDGE('',*,*,#278,.T.);
#155=ORIENTED_EDGE('',*,*,#335,.T.);
#156=ORIENTED_EDGE('',*,*,#284,.T.);
#157=ORIENTED_EDGE('',*,*,#336,.T.);
#158=ORIENTED_EDGE('',*,*,#314,.F.);
#159=ORIENTED_EDGE('',*,*,#337,.T.);
#160=ORIENTED_EDGE('',*,*,#282,.F.);
#161=ORIENTED_EDGE('',*,*,#338,.T.);
#162=ORIENTED_EDGE('',*,*,#308,.T.);
#163=ORIENTED_EDGE('',*,*,#339,.T.);
#164=ORIENTED_EDGE('',*,*,#290,.F.);
#165=ORIENTED_EDGE('',*,*,#340,.T.);
#166=ORIENTED_EDGE('',*,*,#300,.F.);
#167=ORIENTED_EDGE('',*,*,#341,.T.);
#168=ORIENTED_EDGE('',*,*,#288,.T.);
#169=ORIENTED_EDGE('',*,*,#342,.T.);
#170=ORIENTED_EDGE('',*,*,#302,.T.);
#171=ORIENTED_EDGE('',*,*,#343,.T.);
#172=ORIENTED_EDGE('',*,*,#296,.T.);
#173=ORIENTED_EDGE('',*,*,#344,.T.);
#174=ORIENTED_EDGE('',*,*,#294,.T.);
#175=ORIENTED_EDGE('',*,*,#345,.T.);
#176=ORIENTED_EDGE('',*,*,#292,.F.);
#177=ORIENTED_EDGE('',*,*,#346,.T.);
#178=ORIENTED_EDGE('',*,*,#298,.F.);
#179=ORIENTED_EDGE('',*,*,#347,.T.);
#180=ORIENTED_EDGE('',*,*,#279,.F.);
#181=ORIENTED_EDGE('',*,*,#334,.F.);
#182=ORIENTED_EDGE('',*,*,#311,.F.);
#183=ORIENTED_EDGE('',*,*,#332,.F.);
#184=ORIENTED_EDGE('',*,*,#281,.F.);
#185=ORIENTED_EDGE('',*,*,#333,.F.);
#186=ORIENTED_EDGE('',*,*,#309,.F.);
#187=ORIENTED_EDGE('',*,*,#338,.F.);
#188=ORIENTED_EDGE('',*,*,#283,.F.);
#189=ORIENTED_EDGE('',*,*,#339,.F.);
#190=ORIENTED_EDGE('',*,*,#315,.F.);
#191=ORIENTED_EDGE('',*,*,#336,.F.);
#192=ORIENTED_EDGE('',*,*,#285,.F.);
#193=ORIENTED_EDGE('',*,*,#337,.F.);
#194=ORIENTED_EDGE('',*,*,#313,.F.);
#195=ORIENTED_EDGE('',*,*,#335,.F.);
#196=ORIENTED_EDGE('',*,*,#303,.F.);
#197=ORIENTED_EDGE('',*,*,#342,.F.);
#198=ORIENTED_EDGE('',*,*,#295,.F.);
#199=ORIENTED_EDGE('',*,*,#344,.F.);
#200=ORIENTED_EDGE('',*,*,#301,.F.);
#201=ORIENTED_EDGE('',*,*,#340,.F.);
#202=ORIENTED_EDGE('',*,*,#289,.F.);
#203=ORIENTED_EDGE('',*,*,#343,.F.);
#204=ORIENTED_EDGE('',*,*,#299,.F.);
#205=ORIENTED_EDGE('',*,*,#346,.F.);
#206=ORIENTED_EDGE('',*,*,#291,.F.);
#207=ORIENTED_EDGE('',*,*,#341,.F.);
#208=ORIENTED_EDGE('',*,*,#297,.F.);
#209=ORIENTED_EDGE('',*,*,#345,.F.);
#210=ORIENTED_EDGE('',*,*,#293,.F.);
#211=ORIENTED_EDGE('',*,*,#347,.F.);
#212=ORIENTED_EDGE('',*,*,#320,.T.);
#213=ORIENTED_EDGE('',*,*,#267,.T.);
#214=ORIENTED_EDGE('',*,*,#321,.T.);
#215=ORIENTED_EDGE('',*,*,#266,.T.);
#216=ORIENTED_EDGE('',*,*,#322,.T.);
#217=ORIENTED_EDGE('',*,*,#265,.T.);
#218=ORIENTED_EDGE('',*,*,#323,.T.);
#219=ORIENTED_EDGE('',*,*,#264,.T.);
#220=ORIENTED_EDGE('',*,*,#272,.T.);
#221=ORIENTED_EDGE('',*,*,#329,.F.);
#222=ORIENTED_EDGE('',*,*,#273,.T.);
#223=ORIENTED_EDGE('',*,*,#328,.F.);
#224=ORIENTED_EDGE('',*,*,#274,.T.);
#225=ORIENTED_EDGE('',*,*,#327,.F.);
#226=ORIENTED_EDGE('',*,*,#275,.T.);
#227=ORIENTED_EDGE('',*,*,#326,.F.);
#228=ORIENTED_EDGE('',*,*,#324,.F.);
#229=ORIENTED_EDGE('',*,*,#317,.T.);
#230=ORIENTED_EDGE('',*,*,#330,.T.);
#231=ORIENTED_EDGE('',*,*,#305,.F.);
#232=ORIENTED_EDGE('',*,*,#348,.F.);
#233=ORIENTED_EDGE('',*,*,#349,.F.);
#234=ORIENTED_EDGE('',*,*,#350,.T.);
#235=ORIENTED_EDGE('',*,*,#351,.F.);
#236=ORIENTED_EDGE('',*,*,#350,.F.);
#237=ORIENTED_EDGE('',*,*,#352,.T.);
#238=ORIENTED_EDGE('',*,*,#353,.T.);
#239=ORIENTED_EDGE('',*,*,#354,.F.);
#240=ORIENTED_EDGE('',*,*,#352,.F.);
#241=ORIENTED_EDGE('',*,*,#349,.T.);
#242=ORIENTED_EDGE('',*,*,#355,.F.);
#243=ORIENTED_EDGE('',*,*,#356,.F.);
#244=ORIENTED_EDGE('',*,*,#357,.F.);
#245=ORIENTED_EDGE('',*,*,#351,.T.);
#246=ORIENTED_EDGE('',*,*,#354,.T.);
#247=ORIENTED_EDGE('',*,*,#358,.F.);
#248=ORIENTED_EDGE('',*,*,#355,.T.);
#249=ORIENTED_EDGE('',*,*,#348,.T.);
#250=ORIENTED_EDGE('',*,*,#357,.T.);
#251=ORIENTED_EDGE('',*,*,#359,.F.);
#252=ORIENTED_EDGE('',*,*,#359,.T.);
#253=ORIENTED_EDGE('',*,*,#358,.T.);
#254=ORIENTED_EDGE('',*,*,#353,.F.);
#255=ORIENTED_EDGE('',*,*,#356,.T.);
#256=ORIENTED_EDGE('',*,*,#261,.T.);
#257=ORIENTED_EDGE('',*,*,#287,.T.);
#258=ORIENTED_EDGE('',*,*,#269,.F.);
#259=ORIENTED_EDGE('',*,*,#277,.F.);
#260=EDGE_CURVE('',#360,#361,#432,.T.);
#261=EDGE_CURVE('',#362,#361,#433,.T.);
#262=EDGE_CURVE('',#363,#362,#434,.T.);
#263=EDGE_CURVE('',#360,#363,#435,.T.);
#264=EDGE_CURVE('',#364,#364,#28,.T.);
#265=EDGE_CURVE('',#365,#365,#29,.T.);
#266=EDGE_CURVE('',#366,#366,#30,.T.);
#267=EDGE_CURVE('',#367,#367,#31,.T.);
#268=EDGE_CURVE('',#368,#369,#436,.T.);
#269=EDGE_CURVE('',#369,#370,#437,.T.);
#270=EDGE_CURVE('',#371,#370,#438,.T.);
#271=EDGE_CURVE('',#371,#368,#439,.T.);
#272=EDGE_CURVE('',#372,#372,#32,.T.);
#273=EDGE_CURVE('',#373,#373,#33,.T.);
#274=EDGE_CURVE('',#374,#374,#34,.T.);
#275=EDGE_CURVE('',#375,#375,#35,.T.);
#276=EDGE_CURVE('',#368,#363,#440,.T.);
#277=EDGE_CURVE('',#362,#369,#441,.T.);
#278=EDGE_CURVE('',#376,#377,#442,.T.);
#279=EDGE_CURVE('',#376,#378,#36,.F.);
#280=EDGE_CURVE('',#378,#379,#443,.T.);
#281=EDGE_CURVE('',#379,#380,#37,.F.);
#282=EDGE_CURVE('',#380,#381,#444,.T.);
#283=EDGE_CURVE('',#381,#382,#38,.F.);
#284=EDGE_CURVE('',#383,#382,#445,.T.);
#285=EDGE_CURVE('',#383,#377,#39,.F.);
#286=EDGE_CURVE('',#371,#360,#446,.T.);
#287=EDGE_CURVE('',#361,#370,#447,.T.);
#288=EDGE_CURVE('',#384,#385,#448,.T.);
#289=EDGE_CURVE('',#384,#386,#40,.T.);
#290=EDGE_CURVE('',#386,#387,#449,.T.);
#291=EDGE_CURVE('',#387,#388,#41,.T.);
#292=EDGE_CURVE('',#388,#389,#450,.T.);
#293=EDGE_CURVE('',#389,#390,#42,.T.);
#294=EDGE_CURVE('',#391,#390,#451,.T.);
#295=EDGE_CURVE('',#391,#385,#43,.T.);
#296=EDGE_CURVE('',#392,#393,#452,.T.);
#297=EDGE_CURVE('',#392,#394,#44,.F.);
#298=EDGE_CURVE('',#394,#395,#453,.T.);
#299=EDGE_CURVE('',#395,#396,#45,.F.);
#300=EDGE_CURVE('',#396,#397,#454,.T.);
#301=EDGE_CURVE('',#397,#398,#46,.F.);
#302=EDGE_CURVE('',#399,#398,#455,.T.);
#303=EDGE_CURVE('',#399,#393,#47,.F.);
#304=EDGE_CURVE('',#400,#401,#456,.T.);
#305=EDGE_CURVE('',#401,#402,#457,.T.);
#306=EDGE_CURVE('',#403,#402,#458,.T.);
#307=EDGE_CURVE('',#403,#400,#459,.T.);
#308=EDGE_CURVE('',#404,#405,#460,.T.);
#309=EDGE_CURVE('',#404,#406,#48,.T.);
#310=EDGE_CURVE('',#407,#406,#461,.T.);
#311=EDGE_CURVE('',#407,#408,#49,.T.);
#312=EDGE_CURVE('',#408,#409,#462,.T.);
#313=EDGE_CURVE('',#409,#410,#50,.T.);
#314=EDGE_CURVE('',#410,#411,#463,.T.);
#315=EDGE_CURVE('',#411,#405,#51,.T.);
#316=EDGE_CURVE('',#412,#413,#464,.T.);
#317=EDGE_CURVE('',#414,#413,#465,.T.);
#318=EDGE_CURVE('',#415,#414,#466,.T.);
#319=EDGE_CURVE('',#412,#415,#467,.T.);
#320=EDGE_CURVE('',#416,#416,#52,.T.);
#321=EDGE_CURVE('',#417,#417,#53,.T.);
#322=EDGE_CURVE('',#418,#418,#54,.T.);
#323=EDGE_CURVE('',#419,#419,#55,.T.);
#324=EDGE_CURVE('',#414,#401,#468,.T.);
#325=EDGE_CURVE('',#400,#415,#469,.T.);
#326=EDGE_CURVE('',#420,#420,#56,.T.);
#327=EDGE_CURVE('',#421,#421,#57,.T.);
#328=EDGE_CURVE('',#422,#422,#58,.T.);
#329=EDGE_CURVE('',#423,#423,#59,.T.);
#330=EDGE_CURVE('',#413,#402,#470,.T.);
#331=EDGE_CURVE('',#403,#412,#471,.T.);
#332=EDGE_CURVE('',#378,#407,#472,.T.);
#333=EDGE_CURVE('',#406,#379,#473,.F.);
#334=EDGE_CURVE('',#408,#376,#474,.F.);
#335=EDGE_CURVE('',#377,#409,#475,.T.);
#336=EDGE_CURVE('',#382,#411,#476,.T.);
#337=EDGE_CURVE('',#410,#383,#477,.F.);
#338=EDGE_CURVE('',#380,#404,#478,.T.);
#339=EDGE_CURVE('',#405,#381,#479,.F.);
#340=EDGE_CURVE('',#386,#397,#480,.F.);
#341=EDGE_CURVE('',#396,#387,#481,.T.);
#342=EDGE_CURVE('',#385,#399,#482,.F.);
#343=EDGE_CURVE('',#398,#384,#483,.T.);
#344=EDGE_CURVE('',#393,#391,#484,.T.);
#345=EDGE_CURVE('',#390,#392,#485,.F.);
#346=EDGE_CURVE('',#388,#395,#486,.F.);
#347=EDGE_CURVE('',#394,#389,#487,.T.);
#348=EDGE_CURVE('',#424,#425,#488,.T.);
#349=EDGE_CURVE('',#426,#424,#489,.T.);
#350=EDGE_CURVE('',#426,#427,#490,.T.);
#351=EDGE_CURVE('',#425,#427,#491,.T.);
#352=EDGE_CURVE('',#426,#428,#492,.T.);
#353=EDGE_CURVE('',#428,#429,#493,.T.);
#354=EDGE_CURVE('',#427,#429,#494,.T.);
#355=EDGE_CURVE('',#430,#424,#495,.T.);
#356=EDGE_CURVE('',#428,#430,#496,.T.);
#357=EDGE_CURVE('',#425,#431,#497,.T.);
#358=EDGE_CURVE('',#431,#429,#498,.T.);
#359=EDGE_CURVE('',#430,#431,#499,.T.);
#360=VERTEX_POINT('',#1069);
#361=VERTEX_POINT('',#1070);
#362=VERTEX_POINT('',#1072);
#363=VERTEX_POINT('',#1074);
#364=VERTEX_POINT('',#1077);
#365=VERTEX_POINT('',#1079);
#366=VERTEX_POINT('',#1081);
#367=VERTEX_POINT('',#1083);
#368=VERTEX_POINT('',#1086);
#369=VERTEX_POINT('',#1087);
#370=VERTEX_POINT('',#1089);
#371=VERTEX_POINT('',#1091);
#372=VERTEX_POINT('',#1094);
#373=VERTEX_POINT('',#1096);
#374=VERTEX_POINT('',#1098);
#375=VERTEX_POINT('',#1100);
#376=VERTEX_POINT('',#1105);
#377=VERTEX_POINT('',#1106);
#378=VERTEX_POINT('',#1108);
#379=VERTEX_POINT('',#1110);
#380=VERTEX_POINT('',#1112);
#381=VERTEX_POINT('',#1114);
#382=VERTEX_POINT('',#1116);
#383=VERTEX_POINT('',#1118);
#384=VERTEX_POINT('',#1124);
#385=VERTEX_POINT('',#1125);
#386=VERTEX_POINT('',#1127);
#387=VERTEX_POINT('',#1129);
#388=VERTEX_POINT('',#1131);
#389=VERTEX_POINT('',#1133);
#390=VERTEX_POINT('',#1135);
#391=VERTEX_POINT('',#1137);
#392=VERTEX_POINT('',#1141);
#393=VERTEX_POINT('',#1142);
#394=VERTEX_POINT('',#1144);
#395=VERTEX_POINT('',#1146);
#396=VERTEX_POINT('',#1148);
#397=VERTEX_POINT('',#1150);
#398=VERTEX_POINT('',#1152);
#399=VERTEX_POINT('',#1154);
#400=VERTEX_POINT('',#1157);
#401=VERTEX_POINT('',#1158);
#402=VERTEX_POINT('',#1160);
#403=VERTEX_POINT('',#1162);
#404=VERTEX_POINT('',#1166);
#405=VERTEX_POINT('',#1167);
#406=VERTEX_POINT('',#1169);
#407=VERTEX_POINT('',#1171);
#408=VERTEX_POINT('',#1173);
#409=VERTEX_POINT('',#1175);
#410=VERTEX_POINT('',#1177);
#411=VERTEX_POINT('',#1179);
#412=VERTEX_POINT('',#1182);
#413=VERTEX_POINT('',#1183);
#414=VERTEX_POINT('',#1185);
#415=VERTEX_POINT('',#1187);
#416=VERTEX_POINT('',#1191);
#417=VERTEX_POINT('',#1193);
#418=VERTEX_POINT('',#1195);
#419=VERTEX_POINT('',#1197);
#420=VERTEX_POINT('',#1202);
#421=VERTEX_POINT('',#1204);
#422=VERTEX_POINT('',#1206);
#423=VERTEX_POINT('',#1208);
#424=VERTEX_POINT('',#1254);
#425=VERTEX_POINT('',#1255);
#426=VERTEX_POINT('',#1257);
#427=VERTEX_POINT('',#1259);
#428=VERTEX_POINT('',#1263);
#429=VERTEX_POINT('',#1265);
#430=VERTEX_POINT('',#1269);
#431=VERTEX_POINT('',#1273);
#432=LINE('',#1068,#500);
#433=LINE('',#1071,#501);
#434=LINE('',#1073,#502);
#435=LINE('',#1075,#503);
#436=LINE('',#1085,#504);
#437=LINE('',#1088,#505);
#438=LINE('',#1090,#506);
#439=LINE('',#1092,#507);
#440=LINE('',#1102,#508);
#441=LINE('',#1103,#509);
#442=LINE('',#1104,#510);
#443=LINE('',#1109,#511);
#444=LINE('',#1113,#512);
#445=LINE('',#1117,#513);
#446=LINE('',#1121,#514);
#447=LINE('',#1122,#515);
#448=LINE('',#1123,#516);
#449=LINE('',#1128,#517);
#450=LINE('',#1132,#518);
#451=LINE('',#1136,#519);
#452=LINE('',#1140,#520);
#453=LINE('',#1145,#521);
#454=LINE('',#1149,#522);
#455=LINE('',#1153,#523);
#456=LINE('',#1156,#524);
#457=LINE('',#1159,#525);
#458=LINE('',#1161,#526);
#459=LINE('',#1163,#527);
#460=LINE('',#1165,#528);
#461=LINE('',#1170,#529);
#462=LINE('',#1174,#530);
#463=LINE('',#1178,#531);
#464=LINE('',#1181,#532);
#465=LINE('',#1184,#533);
#466=LINE('',#1186,#534);
#467=LINE('',#1188,#535);
#468=LINE('',#1198,#536);
#469=LINE('',#1199,#537);
#470=LINE('',#1209,#538);
#471=LINE('',#1210,#539);
#472=LINE('',#1213,#540);
#473=LINE('',#1214,#541);
#474=LINE('',#1216,#542);
#475=LINE('',#1217,#543);
#476=LINE('',#1219,#544);
#477=LINE('',#1220,#545);
#478=LINE('',#1222,#546);
#479=LINE('',#1223,#547);
#480=LINE('',#1225,#548);
#481=LINE('',#1226,#549);
#482=LINE('',#1228,#550);
#483=LINE('',#1229,#551);
#484=LINE('',#1231,#552);
#485=LINE('',#1232,#553);
#486=LINE('',#1234,#554);
#487=LINE('',#1235,#555);
#488=LINE('',#1253,#556);
#489=LINE('',#1256,#557);
#490=LINE('',#1258,#558);
#491=LINE('',#1260,#559);
#492=LINE('',#1262,#560);
#493=LINE('',#1264,#561);
#494=LINE('',#1266,#562);
#495=LINE('',#1268,#563);
#496=LINE('',#1270,#564);
#497=LINE('',#1272,#565);
#498=LINE('',#1274,#566);
#499=LINE('',#1276,#567);
#500=VECTOR('',#858,1.);
#501=VECTOR('',#859,1.);
#502=VECTOR('',#860,1.);
#503=VECTOR('',#861,1.);
#504=VECTOR('',#872,1.);
#505=VECTOR('',#873,1.);
#506=VECTOR('',#874,1.);
#507=VECTOR('',#875,1.);
#508=VECTOR('',#886,1.);
#509=VECTOR('',#887,1.);
#510=VECTOR('',#888,1.);
#511=VECTOR('',#891,1.);
#512=VECTOR('',#894,1.);
#513=VECTOR('',#897,1.);
#514=VECTOR('',#902,1.);
#515=VECTOR('',#903,1.);
#516=VECTOR('',#904,1.);
#517=VECTOR('',#907,1.);
#518=VECTOR('',#910,1.);
#519=VECTOR('',#913,1.);
#520=VECTOR('',#918,1.);
#521=VECTOR('',#921,1.);
#522=VECTOR('',#924,1.);
#523=VECTOR('',#927,1.);
#524=VECTOR('',#930,1.);
#525=VECTOR('',#931,1.);
#526=VECTOR('',#932,1.);
#527=VECTOR('',#933,1.);
#528=VECTOR('',#936,1.);
#529=VECTOR('',#939,1.);
#530=VECTOR('',#942,1.);
#531=VECTOR('',#945,1.);
#532=VECTOR('',#948,1.);
#533=VECTOR('',#949,1.);
#534=VECTOR('',#950,1.);
#535=VECTOR('',#951,1.);
#536=VECTOR('',#962,1.);
#537=VECTOR('',#963,1.);
#538=VECTOR('',#974,1.);
#539=VECTOR('',#975,1.);
#540=VECTOR('',#980,1.);
#541=VECTOR('',#981,1.);
#542=VECTOR('',#984,1.);
#543=VECTOR('',#985,1.);
#544=VECTOR('',#988,1.);
#545=VECTOR('',#989,1.);
#546=VECTOR('',#992,1.);
#547=VECTOR('',#993,1.);
#548=VECTOR('',#996,1.);
#549=VECTOR('',#997,1.);
#550=VECTOR('',#1000,1.);
#551=VECTOR('',#1001,1.);
#552=VECTOR('',#1004,1.);
#553=VECTOR('',#1005,1.);
#554=VECTOR('',#1008,1.);
#555=VECTOR('',#1009,1.);
#556=VECTOR('',#1044,1.);
#557=VECTOR('',#1045,1.);
#558=VECTOR('',#1046,1.);
#559=VECTOR('',#1047,1.);
#560=VECTOR('',#1050,1.);
#561=VECTOR('',#1051,1.);
#562=VECTOR('',#1052,1.);
#563=VECTOR('',#1055,1.);
#564=VECTOR('',#1056,1.);
#565=VECTOR('',#1059,1.);
#566=VECTOR('',#1060,1.);
#567=VECTOR('',#1063,1.);
#568=EDGE_LOOP('',(#60,#61,#62,#63));
#569=EDGE_LOOP('',(#64));
#570=EDGE_LOOP('',(#65));
#571=EDGE_LOOP('',(#66));
#572=EDGE_LOOP('',(#67));
#573=EDGE_LOOP('',(#68,#69,#70,#71));
#574=EDGE_LOOP('',(#72));
#575=EDGE_LOOP('',(#73));
#576=EDGE_LOOP('',(#74));
#577=EDGE_LOOP('',(#75));
#578=EDGE_LOOP('',(#76,#77,#78,#79));
#579=EDGE_LOOP('',(#80,#81,#82,#83,#84,#85,#86,#87));
#580=EDGE_LOOP('',(#88,#89,#90,#91));
#581=EDGE_LOOP('',(#92,#93,#94,#95,#96,#97,#98,#99));
#582=EDGE_LOOP('',(#100,#101,#102,#103,#104,#105,#106,#107));
#583=EDGE_LOOP('',(#108,#109,#110,#111));
#584=EDGE_LOOP('',(#112,#113,#114,#115,#116,#117,#118,#119));
#585=EDGE_LOOP('',(#120,#121,#122,#123));
#586=EDGE_LOOP('',(#124));
#587=EDGE_LOOP('',(#125));
#588=EDGE_LOOP('',(#126));
#589=EDGE_LOOP('',(#127));
#590=EDGE_LOOP('',(#128,#129,#130,#131));
#591=EDGE_LOOP('',(#132));
#592=EDGE_LOOP('',(#133));
#593=EDGE_LOOP('',(#134));
#594=EDGE_LOOP('',(#135));
#595=EDGE_LOOP('',(#136,#137,#138,#139));
#596=EDGE_LOOP('',(#140,#141,#142,#143));
#597=EDGE_LOOP('',(#144,#145,#146,#147));
#598=EDGE_LOOP('',(#148,#149,#150,#151));
#599=EDGE_LOOP('',(#152,#153,#154,#155));
#600=EDGE_LOOP('',(#156,#157,#158,#159));
#601=EDGE_LOOP('',(#160,#161,#162,#163));
#602=EDGE_LOOP('',(#164,#165,#166,#167));
#603=EDGE_LOOP('',(#168,#169,#170,#171));
#604=EDGE_LOOP('',(#172,#173,#174,#175));
#605=EDGE_LOOP('',(#176,#177,#178,#179));
#606=EDGE_LOOP('',(#180,#181,#182,#183));
#607=EDGE_LOOP('',(#184,#185,#186,#187));
#608=EDGE_LOOP('',(#188,#189,#190,#191));
#609=EDGE_LOOP('',(#192,#193,#194,#195));
#610=EDGE_LOOP('',(#196,#197,#198,#199));
#611=EDGE_LOOP('',(#200,#201,#202,#203));
#612=EDGE_LOOP('',(#204,#205,#206,#207));
#613=EDGE_LOOP('',(#208,#209,#210,#211));
#614=EDGE_LOOP('',(#212));
#615=EDGE_LOOP('',(#213));
#616=EDGE_LOOP('',(#214));
#617=EDGE_LOOP('',(#215));
#618=EDGE_LOOP('',(#216));
#619=EDGE_LOOP('',(#217));
#620=EDGE_LOOP('',(#218));
#621=EDGE_LOOP('',(#219));
#622=EDGE_LOOP('',(#220));
#623=EDGE_LOOP('',(#221));
#624=EDGE_LOOP('',(#222));
#625=EDGE_LOOP('',(#223));
#626=EDGE_LOOP('',(#224));
#627=EDGE_LOOP('',(#225));
#628=EDGE_LOOP('',(#226));
#629=EDGE_LOOP('',(#227));
#630=EDGE_LOOP('',(#228,#229,#230,#231));
#631=EDGE_LOOP('',(#232,#233,#234,#235));
#632=EDGE_LOOP('',(#236,#237,#238,#239));
#633=EDGE_LOOP('',(#240,#241,#242,#243));
#634=EDGE_LOOP('',(#244,#245,#246,#247));
#635=EDGE_LOOP('',(#248,#249,#250,#251));
#636=EDGE_LOOP('',(#252,#253,#254,#255));
#637=EDGE_LOOP('',(#256,#257,#258,#259));
#638=FACE_BOUND('',#568,.T.);
#639=FACE_BOUND('',#569,.T.);
#640=FACE_BOUND('',#570,.T.);
#641=FACE_BOUND('',#571,.T.);
#642=FACE_BOUND('',#572,.T.);
#643=FACE_BOUND('',#573,.T.);
#644=FACE_BOUND('',#574,.T.);
#645=FACE_BOUND('',#575,.T.);
#646=FACE_BOUND('',#576,.T.);
#647=FACE_BOUND('',#577,.T.);
#648=FACE_BOUND('',#578,.T.);
#649=FACE_BOUND('',#579,.T.);
#650=FACE_BOUND('',#580,.T.);
#651=FACE_BOUND('',#581,.T.);
#652=FACE_BOUND('',#582,.T.);
#653=FACE_BOUND('',#583,.T.);
#654=FACE_BOUND('',#584,.T.);
#655=FACE_BOUND('',#585,.T.);
#656=FACE_BOUND('',#586,.T.);
#657=FACE_BOUND('',#587,.T.);
#658=FACE_BOUND('',#588,.T.);
#659=FACE_BOUND('',#589,.T.);
#660=FACE_BOUND('',#590,.T.);
#661=FACE_BOUND('',#591,.T.);
#662=FACE_BOUND('',#592,.T.);
#663=FACE_BOUND('',#593,.T.);
#664=FACE_BOUND('',#594,.T.);
#665=FACE_BOUND('',#595,.T.);
#666=FACE_BOUND('',#596,.T.);
#667=FACE_BOUND('',#597,.T.);
#668=FACE_BOUND('',#598,.T.);
#669=FACE_BOUND('',#599,.T.);
#670=FACE_BOUND('',#600,.T.);
#671=FACE_BOUND('',#601,.T.);
#672=FACE_BOUND('',#602,.T.);
#673=FACE_BOUND('',#603,.T.);
#674=FACE_BOUND('',#604,.T.);
#675=FACE_BOUND('',#605,.T.);
#676=FACE_BOUND('',#606,.T.);
#677=FACE_BOUND('',#607,.T.);
#678=FACE_BOUND('',#608,.T.);
#679=FACE_BOUND('',#609,.T.);
#680=FACE_BOUND('',#610,.T.);
#681=FACE_BOUND('',#611,.T.);
#682=FACE_BOUND('',#612,.T.);
#683=FACE_BOUND('',#613,.T.);
#684=FACE_BOUND('',#614,.T.);
#685=FACE_BOUND('',#615,.T.);
#686=FACE_BOUND('',#616,.T.);
#687=FACE_BOUND('',#617,.T.);
#688=FACE_BOUND('',#618,.T.);
#689=FACE_BOUND('',#619,.T.);
#690=FACE_BOUND('',#620,.T.);
#691=FACE_BOUND('',#621,.T.);
#692=FACE_BOUND('',#622,.T.);
#693=FACE_BOUND('',#623,.T.);
#694=FACE_BOUND('',#624,.T.);
#695=FACE_BOUND('',#625,.T.);
#696=FACE_BOUND('',#626,.T.);
#697=FACE_BOUND('',#627,.T.);
#698=FACE_BOUND('',#628,.T.);
#699=FACE_BOUND('',#629,.T.);
#700=FACE_BOUND('',#630,.T.);
#701=FACE_BOUND('',#631,.T.);
#702=FACE_BOUND('',#632,.T.);
#703=FACE_BOUND('',#633,.T.);
#704=FACE_BOUND('',#634,.T.);
#705=FACE_BOUND('',#635,.T.);
#706=FACE_BOUND('',#636,.T.);
#707=FACE_BOUND('',#637,.T.);
#708=PLANE('',#783);
#709=PLANE('',#788);
#710=PLANE('',#793);
#711=PLANE('',#798);
#712=PLANE('',#803);
#713=PLANE('',#808);
#714=PLANE('',#813);
#715=PLANE('',#818);
#716=PLANE('',#823);
#717=PLANE('',#824);
#718=PLANE('',#825);
#719=PLANE('',#826);
#720=PLANE('',#827);
#721=PLANE('',#828);
#722=PLANE('',#829);
#723=PLANE('',#830);
#724=PLANE('',#831);
#725=PLANE('',#848);
#726=PLANE('',#849);
#727=PLANE('',#850);
#728=PLANE('',#851);
#729=PLANE('',#852);
#730=PLANE('',#853);
#731=ADVANCED_FACE('',(#638,#639,#640,#641,#642),#708,.F.);
#732=ADVANCED_FACE('',(#643,#644,#645,#646,#647),#709,.T.);
#733=ADVANCED_FACE('',(#648,#649),#710,.T.);
#734=ADVANCED_FACE('',(#650,#651),#711,.F.);
#735=ADVANCED_FACE('',(#652,#653),#712,.T.);
#736=ADVANCED_FACE('',(#654,#655),#713,.F.);
#737=ADVANCED_FACE('',(#656,#657,#658,#659,#660),#714,.T.);
#738=ADVANCED_FACE('',(#661,#662,#663,#664,#665),#715,.F.);
#739=ADVANCED_FACE('',(#666,#667),#716,.T.);
#740=ADVANCED_FACE('',(#668),#717,.T.);
#741=ADVANCED_FACE('',(#669),#718,.F.);
#742=ADVANCED_FACE('',(#670),#719,.F.);
#743=ADVANCED_FACE('',(#671),#720,.T.);
#744=ADVANCED_FACE('',(#672),#721,.T.);
#745=ADVANCED_FACE('',(#673),#722,.F.);
#746=ADVANCED_FACE('',(#674),#723,.F.);
#747=ADVANCED_FACE('',(#675),#724,.T.);
#748=ADVANCED_FACE('',(#676),#12,.F.);
#749=ADVANCED_FACE('',(#677),#13,.F.);
#750=ADVANCED_FACE('',(#678),#14,.F.);
#751=ADVANCED_FACE('',(#679),#15,.F.);
#752=ADVANCED_FACE('',(#680),#16,.F.);
#753=ADVANCED_FACE('',(#681),#17,.F.);
#754=ADVANCED_FACE('',(#682),#18,.F.);
#755=ADVANCED_FACE('',(#683),#19,.F.);
#756=ADVANCED_FACE('',(#684,#685),#20,.F.);
#757=ADVANCED_FACE('',(#686,#687),#21,.F.);
#758=ADVANCED_FACE('',(#688,#689),#22,.F.);
#759=ADVANCED_FACE('',(#690,#691),#23,.F.);
#760=ADVANCED_FACE('',(#692,#693),#24,.F.);
#761=ADVANCED_FACE('',(#694,#695),#25,.F.);
#762=ADVANCED_FACE('',(#696,#697),#26,.F.);
#763=ADVANCED_FACE('',(#698,#699),#27,.F.);
#764=ADVANCED_FACE('',(#700,#701),#725,.T.);
#765=ADVANCED_FACE('',(#702),#726,.F.);
#766=ADVANCED_FACE('',(#703),#727,.T.);
#767=ADVANCED_FACE('',(#704),#728,.T.);
#768=ADVANCED_FACE('',(#705),#729,.T.);
#769=ADVANCED_FACE('',(#706,#707),#730,.T.);
#770=CLOSED_SHELL('',(#731,#732,#733,#734,#735,#736,#737,#738,#739,#740,
#741,#742,#743,#744,#745,#746,#747,#748,#749,#750,#751,#752,#753,#754,#755,
#756,#757,#758,#759,#760,#761,#762,#763,#764,#765,#766,#767,#768,#769));
#771=STYLED_ITEM('',(#772),#779);
#772=PRESENTATION_STYLE_ASSIGNMENT((#773));
#773=SURFACE_STYLE_USAGE(.BOTH.,#774);
#774=SURFACE_SIDE_STYLE('',(#775));
#775=SURFACE_STYLE_FILL_AREA(#776);
#776=FILL_AREA_STYLE('',(#777));
#777=FILL_AREA_STYLE_COLOUR('',#778);
#778=COLOUR_RGB('',0.615686274509804,0.811764705882353,0.929411764705882);
#779=MANIFOLD_SOLID_BREP('Part 11',#770);
#780=SHAPE_DEFINITION_REPRESENTATION(#1284,#781);
#781=SHAPE_REPRESENTATION('Part 11',(#782),#1279);
#782=AXIS2_PLACEMENT_3D('',#1066,#854,#855);
#783=AXIS2_PLACEMENT_3D('',#1067,#856,#857);
#784=AXIS2_PLACEMENT_3D('',#1076,#862,#863);
#785=AXIS2_PLACEMENT_3D('',#1078,#864,#865);
#786=AXIS2_PLACEMENT_3D('',#1080,#866,#867);
#787=AXIS2_PLACEMENT_3D('',#1082,#868,#869);
#788=AXIS2_PLACEMENT_3D('',#1084,#870,#871);
#789=AXIS2_PLACEMENT_3D('',#1093,#876,#877);
#790=AXIS2_PLACEMENT_3D('',#1095,#878,#879);
#791=AXIS2_PLACEMENT_3D('',#1097,#880,#881);
#792=AXIS2_PLACEMENT_3D('',#1099,#882,#883);
#793=AXIS2_PLACEMENT_3D('',#1101,#884,#885);
#794=AXIS2_PLACEMENT_3D('',#1107,#889,#890);
#795=AXIS2_PLACEMENT_3D('',#1111,#892,#893);
#796=AXIS2_PLACEMENT_3D('',#1115,#895,#896);
#797=AXIS2_PLACEMENT_3D('',#1119,#898,#899);
#798=AXIS2_PLACEMENT_3D('',#1120,#900,#901);
#799=AXIS2_PLACEMENT_3D('',#1126,#905,#906);
#800=AXIS2_PLACEMENT_3D('',#1130,#908,#909);
#801=AXIS2_PLACEMENT_3D('',#1134,#911,#912);
#802=AXIS2_PLACEMENT_3D('',#1138,#914,#915);
#803=AXIS2_PLACEMENT_3D('',#1139,#916,#917);
#804=AXIS2_PLACEMENT_3D('',#1143,#919,#920);
#805=AXIS2_PLACEMENT_3D('',#1147,#922,#923);
#806=AXIS2_PLACEMENT_3D('',#1151,#925,#926);
#807=AXIS2_PLACEMENT_3D('',#1155,#928,#929);
#808=AXIS2_PLACEMENT_3D('',#1164,#934,#935);
#809=AXIS2_PLACEMENT_3D('',#1168,#937,#938);
#810=AXIS2_PLACEMENT_3D('',#1172,#940,#941);
#811=AXIS2_PLACEMENT_3D('',#1176,#943,#944);
#812=AXIS2_PLACEMENT_3D('',#1180,#946,#947);
#813=AXIS2_PLACEMENT_3D('',#1189,#952,#953);
#814=AXIS2_PLACEMENT_3D('',#1190,#954,#955);
#815=AXIS2_PLACEMENT_3D('',#1192,#956,#957);
#816=AXIS2_PLACEMENT_3D('',#1194,#958,#959);
#817=AXIS2_PLACEMENT_3D('',#1196,#960,#961);
#818=AXIS2_PLACEMENT_3D('',#1200,#964,#965);
#819=AXIS2_PLACEMENT_3D('',#1201,#966,#967);
#820=AXIS2_PLACEMENT_3D('',#1203,#968,#969);
#821=AXIS2_PLACEMENT_3D('',#1205,#970,#971);
#822=AXIS2_PLACEMENT_3D('',#1207,#972,#973);
#823=AXIS2_PLACEMENT_3D('',#1211,#976,#977);
#824=AXIS2_PLACEMENT_3D('',#1212,#978,#979);
#825=AXIS2_PLACEMENT_3D('',#1215,#982,#983);
#826=AXIS2_PLACEMENT_3D('',#1218,#986,#987);
#827=AXIS2_PLACEMENT_3D('',#1221,#990,#991);
#828=AXIS2_PLACEMENT_3D('',#1224,#994,#995);
#829=AXIS2_PLACEMENT_3D('',#1227,#998,#999);
#830=AXIS2_PLACEMENT_3D('',#1230,#1002,#1003);
#831=AXIS2_PLACEMENT_3D('',#1233,#1006,#1007);
#832=AXIS2_PLACEMENT_3D('',#1236,#1010,#1011);
#833=AXIS2_PLACEMENT_3D('',#1237,#1012,#1013);
#834=AXIS2_PLACEMENT_3D('',#1238,#1014,#1015);
#835=AXIS2_PLACEMENT_3D('',#1239,#1016,#1017);
#836=AXIS2_PLACEMENT_3D('',#1240,#1018,#1019);
#837=AXIS2_PLACEMENT_3D('',#1241,#1020,#1021);
#838=AXIS2_PLACEMENT_3D('',#1242,#1022,#1023);
#839=AXIS2_PLACEMENT_3D('',#1243,#1024,#1025);
#840=AXIS2_PLACEMENT_3D('',#1244,#1026,#1027);
#841=AXIS2_PLACEMENT_3D('',#1245,#1028,#1029);
#842=AXIS2_PLACEMENT_3D('',#1246,#1030,#1031);
#843=AXIS2_PLACEMENT_3D('',#1247,#1032,#1033);
#844=AXIS2_PLACEMENT_3D('',#1248,#1034,#1035);
#845=AXIS2_PLACEMENT_3D('',#1249,#1036,#1037);
#846=AXIS2_PLACEMENT_3D('',#1250,#1038,#1039);
#847=AXIS2_PLACEMENT_3D('',#1251,#1040,#1041);
#848=AXIS2_PLACEMENT_3D('',#1252,#1042,#1043);
#849=AXIS2_PLACEMENT_3D('',#1261,#1048,#1049);
#850=AXIS2_PLACEMENT_3D('',#1267,#1053,#1054);
#851=AXIS2_PLACEMENT_3D('',#1271,#1057,#1058);
#852=AXIS2_PLACEMENT_3D('',#1275,#1061,#1062);
#853=AXIS2_PLACEMENT_3D('',#1277,#1064,#1065);
#854=DIRECTION('',(0.,0.,1.));
#855=DIRECTION('',(1.,0.,0.));
#856=DIRECTION('',(1.,0.,0.));
#857=DIRECTION('',(0.,0.,-1.));
#858=DIRECTION('',(0.,0.,-1.));
#859=DIRECTION('',(0.,1.,6.12323399573677E-17));
#860=DIRECTION('',(0.,0.,-1.));
#861=DIRECTION('',(0.,-1.,0.));
#862=DIRECTION('',(-1.,0.,0.));
#863=DIRECTION('',(0.,0.,1.));
#864=DIRECTION('',(-1.,0.,0.));
#865=DIRECTION('',(0.,0.,1.));
#866=DIRECTION('',(-1.,0.,0.));
#867=DIRECTION('',(0.,0.,1.));
#868=DIRECTION('',(-1.,0.,0.));
#869=DIRECTION('',(0.,0.,1.));
#870=DIRECTION('',(1.,0.,0.));
#871=DIRECTION('',(0.,0.,-1.));
#872=DIRECTION('',(0.,0.,-1.));
#873=DIRECTION('',(0.,1.,6.12323399573677E-17));
#874=DIRECTION('',(0.,0.,-1.));
#875=DIRECTION('',(0.,-1.,0.));
#876=DIRECTION('',(1.,0.,0.));
#877=DIRECTION('',(0.,0.,-1.));
#878=DIRECTION('',(1.,0.,0.));
#879=DIRECTION('',(0.,0.,-1.));
#880=DIRECTION('',(1.,0.,0.));
#881=DIRECTION('',(0.,0.,-1.));
#882=DIRECTION('',(1.,0.,0.));
#883=DIRECTION('',(0.,0.,-1.));
#884=DIRECTION('',(0.,-1.,0.));
#885=DIRECTION('',(0.,0.,-1.));
#886=DIRECTION('',(-1.,0.,0.));
#887=DIRECTION('',(1.,0.,0.));
#888=DIRECTION('',(2.89120579329468E-16,0.,1.));
#889=DIRECTION('',(0.,-1.,0.));
#890=DIRECTION('',(0.,0.,-1.));
#891=DIRECTION('',(-1.,0.,0.));
#892=DIRECTION('',(0.,-1.,0.));
#893=DIRECTION('',(0.,0.,-1.));
#894=DIRECTION('',(7.22801448323669E-17,0.,1.));
#895=DIRECTION('',(0.,-1.,0.));
#896=DIRECTION('',(0.,0.,-1.));
#897=DIRECTION('',(-1.,0.,0.));
#898=DIRECTION('',(0.,-1.,0.));
#899=DIRECTION('',(0.,0.,-1.));
#900=DIRECTION('',(0.,-1.,0.));
#901=DIRECTION('',(0.,0.,-1.));
#902=DIRECTION('',(-1.,0.,0.));
#903=DIRECTION('',(1.,0.,0.));
#904=DIRECTION('',(1.,0.,0.));
#905=DIRECTION('',(0.,-1.,0.));
#906=DIRECTION('',(0.,0.,-1.));
#907=DIRECTION('',(-7.22801448323669E-17,0.,-1.));
#908=DIRECTION('',(0.,-1.,0.));
#909=DIRECTION('',(0.,0.,-1.));
#910=DIRECTION('',(1.,0.,0.));
#911=DIRECTION('',(0.,-1.,0.));
#912=DIRECTION('',(0.,0.,-1.));
#913=DIRECTION('',(-2.89120579329468E-16,0.,-1.));
#914=DIRECTION('',(0.,-1.,0.));
#915=DIRECTION('',(0.,0.,-1.));
#916=DIRECTION('',(0.,-1.,0.));
#917=DIRECTION('',(0.,0.,-1.));
#918=DIRECTION('',(2.89120579329468E-16,0.,1.));
#919=DIRECTION('',(0.,-1.,0.));
#920=DIRECTION('',(0.,0.,-1.));
#921=DIRECTION('',(-1.,0.,0.));
#922=DIRECTION('',(0.,-1.,0.));
#923=DIRECTION('',(0.,0.,-1.));
#924=DIRECTION('',(7.22801448323669E-17,0.,1.));
#925=DIRECTION('',(0.,-1.,0.));
#926=DIRECTION('',(0.,0.,-1.));
#927=DIRECTION('',(-1.,0.,0.));
#928=DIRECTION('',(0.,-1.,0.));
#929=DIRECTION('',(0.,0.,-1.));
#930=DIRECTION('',(0.,0.,-1.));
#931=DIRECTION('',(1.,0.,0.));
#932=DIRECTION('',(0.,0.,-1.));
#933=DIRECTION('',(-1.,0.,0.));
#934=DIRECTION('',(0.,-1.,0.));
#935=DIRECTION('',(0.,0.,-1.));
#936=DIRECTION('',(7.22801448323669E-17,0.,1.));
#937=DIRECTION('',(0.,-1.,0.));
#938=DIRECTION('',(0.,0.,-1.));
#939=DIRECTION('',(-1.,0.,0.));
#940=DIRECTION('',(0.,-1.,0.));
#941=DIRECTION('',(0.,0.,-1.));
#942=DIRECTION('',(2.89120579329468E-16,0.,1.));
#943=DIRECTION('',(0.,-1.,0.));
#944=DIRECTION('',(0.,0.,-1.));
#945=DIRECTION('',(-1.,0.,0.));
#946=DIRECTION('',(0.,-1.,0.));
#947=DIRECTION('',(0.,0.,-1.));
#948=DIRECTION('',(0.,0.,-1.));
#949=DIRECTION('',(1.,0.,0.));
#950=DIRECTION('',(0.,0.,-1.));
#951=DIRECTION('',(-1.,0.,0.));
#952=DIRECTION('',(1.,0.,0.));
#953=DIRECTION('',(0.,0.,-1.));
#954=DIRECTION('',(1.,0.,0.));
#955=DIRECTION('',(0.,0.,-1.));
#956=DIRECTION('',(1.,0.,0.));
#957=DIRECTION('',(0.,0.,-1.));
#958=DIRECTION('',(1.,0.,0.));
#959=DIRECTION('',(0.,0.,-1.));
#960=DIRECTION('',(1.,0.,0.));
#961=DIRECTION('',(0.,0.,-1.));
#962=DIRECTION('',(0.,1.,6.12323399573677E-17));
#963=DIRECTION('',(0.,-1.,0.));
#964=DIRECTION('',(1.,0.,0.));
#965=DIRECTION('',(0.,0.,-1.));
#966=DIRECTION('',(1.,0.,0.));
#967=DIRECTION('',(0.,0.,-1.));
#968=DIRECTION('',(1.,0.,0.));
#969=DIRECTION('',(0.,0.,-1.));
#970=DIRECTION('',(1.,0.,0.));
#971=DIRECTION('',(0.,0.,-1.));
#972=DIRECTION('',(1.,0.,0.));
#973=DIRECTION('',(0.,0.,-1.));
#974=DIRECTION('',(0.,1.,6.12323399573677E-17));
#975=DIRECTION('',(0.,-1.,0.));
#976=DIRECTION('',(0.,0.,1.));
#977=DIRECTION('',(1.,0.,0.));
#978=DIRECTION('',(0.,0.,1.));
#979=DIRECTION('',(1.,0.,0.));
#980=DIRECTION('',(0.,1.,0.));
#981=DIRECTION('',(0.,1.,0.));
#982=DIRECTION('',(1.,0.,-2.89120579329468E-16));
#983=DIRECTION('',(-2.89120579329468E-16,0.,-1.));
#984=DIRECTION('',(0.,1.,0.));
#985=DIRECTION('',(0.,1.,0.));
#986=DIRECTION('',(0.,0.,1.));
#987=DIRECTION('',(1.,0.,0.));
#988=DIRECTION('',(0.,1.,0.));
#989=DIRECTION('',(0.,1.,0.));
#990=DIRECTION('',(1.,0.,-7.22801448323669E-17));
#991=DIRECTION('',(-7.22801448323669E-17,0.,-1.));
#992=DIRECTION('',(0.,1.,0.));
#993=DIRECTION('',(0.,1.,0.));
#994=DIRECTION('',(1.,0.,-7.22801448323669E-17));
#995=DIRECTION('',(-7.22801448323669E-17,0.,-1.));
#996=DIRECTION('',(0.,1.,0.));
#997=DIRECTION('',(0.,1.,0.));
#998=DIRECTION('',(0.,0.,1.));
#999=DIRECTION('',(1.,0.,0.));
#1000=DIRECTION('',(0.,1.,0.));
#1001=DIRECTION('',(0.,1.,0.));
#1002=DIRECTION('',(1.,0.,-2.89120579329468E-16));
#1003=DIRECTION('',(-2.89120579329468E-16,0.,-1.));
#1004=DIRECTION('',(0.,1.,0.));
#1005=DIRECTION('',(0.,1.,0.));
#1006=DIRECTION('',(0.,0.,1.));
#1007=DIRECTION('',(1.,0.,0.));
#1008=DIRECTION('',(0.,1.,0.));
#1009=DIRECTION('',(0.,1.,0.));
#1010=DIRECTION('',(0.,1.,0.));
#1011=DIRECTION('',(0.,0.,1.));
#1012=DIRECTION('',(0.,-1.,0.));
#1013=DIRECTION('',(0.,0.,-1.));
#1014=DIRECTION('',(0.,1.,0.));
#1015=DIRECTION('',(0.,0.,1.));
#1016=DIRECTION('',(0.,-1.,0.));
#1017=DIRECTION('',(0.,0.,-1.));
#1018=DIRECTION('',(0.,-1.,0.));
#1019=DIRECTION('',(0.,0.,-1.));
#1020=DIRECTION('',(0.,1.,0.));
#1021=DIRECTION('',(0.,0.,1.));
#1022=DIRECTION('',(0.,-1.,0.));
#1023=DIRECTION('',(0.,0.,-1.));
#1024=DIRECTION('',(0.,1.,0.));
#1025=DIRECTION('',(0.,0.,1.));
#1026=DIRECTION('',(-1.,0.,0.));
#1027=DIRECTION('',(0.,0.,1.));
#1028=DIRECTION('',(-1.,0.,0.));
#1029=DIRECTION('',(0.,0.,1.));
#1030=DIRECTION('',(-1.,0.,0.));
#1031=DIRECTION('',(0.,0.,1.));
#1032=DIRECTION('',(-1.,0.,0.));
#1033=DIRECTION('',(0.,0.,1.));
#1034=DIRECTION('',(-1.,0.,0.));
#1035=DIRECTION('',(0.,0.,1.));
#1036=DIRECTION('',(-1.,0.,0.));
#1037=DIRECTION('',(0.,0.,1.));
#1038=DIRECTION('',(-1.,0.,0.));
#1039=DIRECTION('',(0.,0.,1.));
#1040=DIRECTION('',(-1.,0.,0.));
#1041=DIRECTION('',(0.,0.,1.));
#1042=DIRECTION('',(0.,6.12323399573677E-17,-1.));
#1043=DIRECTION('',(1.,0.,0.));
#1044=DIRECTION('',(-3.74939945665465E-33,-1.,-6.12323399573677E-17));
#1045=DIRECTION('',(-1.,0.,0.));
#1046=DIRECTION('',(3.74939945665465E-33,-1.,-6.12323399573677E-17));
#1047=DIRECTION('',(1.,0.,0.));
#1048=DIRECTION('',(1.,0.,6.12323399573677E-17));
#1049=DIRECTION('',(0.,1.,0.));
#1050=DIRECTION('',(6.12323399573677E-17,0.,-1.));
#1051=DIRECTION('',(3.74939945665465E-33,-1.,-6.12323399573677E-17));
#1052=DIRECTION('',(6.12323399573677E-17,0.,-1.));
#1053=DIRECTION('',(0.,-1.,0.));
#1054=DIRECTION('',(1.,0.,0.));
#1055=DIRECTION('',(6.12323399573677E-17,0.,1.));
#1056=DIRECTION('',(-1.,0.,0.));
#1057=DIRECTION('',(0.,1.,0.));
#1058=DIRECTION('',(-1.,0.,0.));
#1059=DIRECTION('',(-6.12323399573677E-17,0.,-1.));
#1060=DIRECTION('',(1.,0.,0.));
#1061=DIRECTION('',(1.,0.,-6.12323399573677E-17));
#1062=DIRECTION('',(0.,1.,0.));
#1063=DIRECTION('',(-3.74939945665465E-33,-1.,-6.12323399573677E-17));
#1064=DIRECTION('',(0.,6.12323399573677E-17,-1.));
#1065=DIRECTION('',(1.,0.,0.));
#1066=CARTESIAN_POINT('',(0.,0.,0.));
#1067=CARTESIAN_POINT('',(-0.01,0.,1.9431));
#1068=CARTESIAN_POINT('',(-0.01,0.01,1.9431));
#1069=CARTESIAN_POINT('',(-0.01,0.01,1.9431));
#1070=CARTESIAN_POINT('',(-0.01,0.01,1.7072));
#1071=CARTESIAN_POINT('',(-0.01,1.4444708995943E-17,1.7072));
#1072=CARTESIAN_POINT('',(-0.01,-0.01,1.7072));
#1073=CARTESIAN_POINT('',(-0.01,-0.01,1.9431));
#1074=CARTESIAN_POINT('',(-0.01,-0.01,1.9431));
#1075=CARTESIAN_POINT('',(-0.01,0.,1.9431));
#1076=CARTESIAN_POINT('',(-0.01,0.004,1.9391));
#1077=CARTESIAN_POINT('',(-0.01,0.004,1.9413));
#1078=CARTESIAN_POINT('',(-0.01,-0.004,1.9231));
#1079=CARTESIAN_POINT('',(-0.01,-0.004,1.9253));
#1080=CARTESIAN_POINT('',(-0.01,0.004,1.9231));
#1081=CARTESIAN_POINT('',(-0.01,0.004,1.9253));
#1082=CARTESIAN_POINT('',(-0.01,-0.004,1.9391));
#1083=CARTESIAN_POINT('',(-0.01,-0.004,1.9413));
#1084=CARTESIAN_POINT('',(0.01,0.,1.9431));
#1085=CARTESIAN_POINT('',(0.01,-0.01,1.9431));
#1086=CARTESIAN_POINT('',(0.01,-0.01,1.9431));
#1087=CARTESIAN_POINT('',(0.01,-0.01,1.7072));
#1088=CARTESIAN_POINT('',(0.01,1.4444708995943E-17,1.7072));
#1089=CARTESIAN_POINT('',(0.01,0.01,1.7072));
#1090=CARTESIAN_POINT('',(0.01,0.01,1.9431));
#1091=CARTESIAN_POINT('',(0.01,0.01,1.9431));
#1092=CARTESIAN_POINT('',(0.01,0.,1.9431));
#1093=CARTESIAN_POINT('',(0.01,-0.004,1.9391));
#1094=CARTESIAN_POINT('',(0.01,-0.004,1.9369));
#1095=CARTESIAN_POINT('',(0.01,0.004,1.9231));
#1096=CARTESIAN_POINT('',(0.01,0.004,1.9209));
#1097=CARTESIAN_POINT('',(0.01,-0.004,1.9231));
#1098=CARTESIAN_POINT('',(0.01,-0.004,1.9209));
#1099=CARTESIAN_POINT('',(0.01,0.004,1.9391));
#1100=CARTESIAN_POINT('',(0.01,0.004,1.9369));
#1101=CARTESIAN_POINT('',(0.,-0.01,1.9431));
#1102=CARTESIAN_POINT('',(0.,-0.01,1.9431));
#1103=CARTESIAN_POINT('',(0.,-0.01,1.7072));
#1104=CARTESIAN_POINT('',(0.00500000000000038,-0.01,1.9431));
#1105=CARTESIAN_POINT('',(0.00500000000000038,-0.01,1.9271));
#1106=CARTESIAN_POINT('',(0.00500000000000038,-0.01,1.9351));
#1107=CARTESIAN_POINT('',(0.00300000000000038,-0.01,1.9271));
#1108=CARTESIAN_POINT('',(0.00300000000000038,-0.01,1.9251));
#1109=CARTESIAN_POINT('',(0.,-0.01,1.9251));
#1110=CARTESIAN_POINT('',(-0.00299999999999962,-0.01,1.9251));
#1111=CARTESIAN_POINT('',(-0.00299999999999962,-0.01,1.9271));
#1112=CARTESIAN_POINT('',(-0.00499999999999963,-0.01,1.9271));
#1113=CARTESIAN_POINT('',(-0.00499999999999962,-0.01,1.9431));
#1114=CARTESIAN_POINT('',(-0.00499999999999963,-0.01,1.9351));
#1115=CARTESIAN_POINT('',(-0.00299999999999962,-0.01,1.9351));
#1116=CARTESIAN_POINT('',(-0.00299999999999962,-0.01,1.9371));
#1117=CARTESIAN_POINT('',(0.,-0.01,1.9371));
#1118=CARTESIAN_POINT('',(0.00300000000000038,-0.01,1.9371));
#1119=CARTESIAN_POINT('',(0.00300000000000038,-0.01,1.9351));
#1120=CARTESIAN_POINT('',(-1.7347234759768E-18,0.01,1.9431));
#1121=CARTESIAN_POINT('',(-1.7347234759768E-18,0.01,1.9431));
#1122=CARTESIAN_POINT('',(-1.7347234759768E-18,0.01,1.7072));
#1123=CARTESIAN_POINT('',(3.81639164714898E-16,0.01,1.9371));
#1124=CARTESIAN_POINT('',(-0.00299999999999962,0.01,1.9371));
#1125=CARTESIAN_POINT('',(0.00300000000000038,0.01,1.9371));
#1126=CARTESIAN_POINT('',(-0.00299999999999962,0.01,1.9351));
#1127=CARTESIAN_POINT('',(-0.00499999999999963,0.01,1.9351));
#1128=CARTESIAN_POINT('',(-0.00499999999999963,0.01,1.9311));
#1129=CARTESIAN_POINT('',(-0.00499999999999963,0.01,1.9271));
#1130=CARTESIAN_POINT('',(-0.00299999999999962,0.01,1.9271));
#1131=CARTESIAN_POINT('',(-0.00299999999999962,0.01,1.9251));
#1132=CARTESIAN_POINT('',(3.78169717762944E-16,0.01,1.9251));
#1133=CARTESIAN_POINT('',(0.00300000000000038,0.01,1.9251));
#1134=CARTESIAN_POINT('',(0.00300000000000038,0.01,1.9271));
#1135=CARTESIAN_POINT('',(0.00500000000000038,0.01,1.9271));
#1136=CARTESIAN_POINT('',(0.00500000000000038,0.01,1.9311));
#1137=CARTESIAN_POINT('',(0.00500000000000038,0.01,1.9351));
#1138=CARTESIAN_POINT('',(0.00300000000000038,0.01,1.9351));
#1139=CARTESIAN_POINT('',(-1.7347234759768E-18,0.0084,1.9431));
#1140=CARTESIAN_POINT('',(0.00500000000000038,0.0084,1.9431));
#1141=CARTESIAN_POINT('',(0.00500000000000038,0.0084,1.9271));
#1142=CARTESIAN_POINT('',(0.00500000000000038,0.0084,1.9351));
#1143=CARTESIAN_POINT('',(0.00300000000000038,0.0084,1.9271));
#1144=CARTESIAN_POINT('',(0.00300000000000038,0.0084,1.9251));
#1145=CARTESIAN_POINT('',(-1.7347234759768E-18,0.0084,1.9251));
#1146=CARTESIAN_POINT('',(-0.00299999999999962,0.0084,1.9251));
#1147=CARTESIAN_POINT('',(-0.00299999999999962,0.0084,1.9271));
#1148=CARTESIAN_POINT('',(-0.00499999999999963,0.0084,1.9271));
#1149=CARTESIAN_POINT('',(-0.00499999999999962,0.0084,1.9431));
#1150=CARTESIAN_POINT('',(-0.00499999999999963,0.0084,1.9351));
#1151=CARTESIAN_POINT('',(-0.00299999999999962,0.0084,1.9351));
#1152=CARTESIAN_POINT('',(-0.00299999999999962,0.0084,1.9371));
#1153=CARTESIAN_POINT('',(-1.7347234759768E-18,0.0084,1.9371));
#1154=CARTESIAN_POINT('',(0.00300000000000038,0.0084,1.9371));
#1155=CARTESIAN_POINT('',(0.00300000000000038,0.0084,1.9351));
#1156=CARTESIAN_POINT('',(-0.0084,0.0084,1.9431));
#1157=CARTESIAN_POINT('',(-0.0084,0.0084,1.9431));
#1158=CARTESIAN_POINT('',(-0.0084,0.0084,1.7326));
#1159=CARTESIAN_POINT('',(-1.7347234759768E-18,0.0084,1.7326));
#1160=CARTESIAN_POINT('',(0.0084,0.0084,1.7326));
#1161=CARTESIAN_POINT('',(0.0084,0.0084,1.9431));
#1162=CARTESIAN_POINT('',(0.0084,0.0084,1.9431));
#1163=CARTESIAN_POINT('',(-1.7347234759768E-18,0.0084,1.9431));
#1164=CARTESIAN_POINT('',(-1.7347234759768E-18,-0.0084,1.9431));
#1165=CARTESIAN_POINT('',(-0.00499999999999962,-0.0084,1.9431));
#1166=CARTESIAN_POINT('',(-0.00499999999999963,-0.0084,1.9271));
#1167=CARTESIAN_POINT('',(-0.00499999999999963,-0.0084,1.9351));
#1168=CARTESIAN_POINT('',(-0.00299999999999962,-0.0084,1.9271));
#1169=CARTESIAN_POINT('',(-0.00299999999999962,-0.0084,1.9251));
#1170=CARTESIAN_POINT('',(-1.7347234759768E-18,-0.0084,1.9251));
#1171=CARTESIAN_POINT('',(0.00300000000000038,-0.0084,1.9251));
#1172=CARTESIAN_POINT('',(0.00300000000000038,-0.0084,1.9271));
#1173=CARTESIAN_POINT('',(0.00500000000000038,-0.0084,1.9271));
#1174=CARTESIAN_POINT('',(0.00500000000000038,-0.0084,1.9431));
#1175=CARTESIAN_POINT('',(0.00500000000000038,-0.0084,1.9351));
#1176=CARTESIAN_POINT('',(0.00300000000000038,-0.0084,1.9351));
#1177=CARTESIAN_POINT('',(0.00300000000000038,-0.0084,1.9371));
#1178=CARTESIAN_POINT('',(-1.7347234759768E-18,-0.0084,1.9371));
#1179=CARTESIAN_POINT('',(-0.00299999999999962,-0.0084,1.9371));
#1180=CARTESIAN_POINT('',(-0.00299999999999962,-0.0084,1.9351));
#1181=CARTESIAN_POINT('',(0.0084,-0.0084,1.9431));
#1182=CARTESIAN_POINT('',(0.0084,-0.0084,1.9431));
#1183=CARTESIAN_POINT('',(0.0084,-0.0084,1.7326));
#1184=CARTESIAN_POINT('',(-1.7347234759768E-18,-0.0084,1.7326));
#1185=CARTESIAN_POINT('',(-0.0084,-0.0084,1.7326));
#1186=CARTESIAN_POINT('',(-0.0084,-0.0084,1.9431));
#1187=CARTESIAN_POINT('',(-0.0084,-0.0084,1.9431));
#1188=CARTESIAN_POINT('',(-1.7347234759768E-18,-0.0084,1.9431));
#1189=CARTESIAN_POINT('',(-0.0084,0.,1.9431));
#1190=CARTESIAN_POINT('',(-0.0084,-0.004,1.9391));
#1191=CARTESIAN_POINT('',(-0.0084,-0.004,1.9369));
#1192=CARTESIAN_POINT('',(-0.0084,0.004,1.9231));
#1193=CARTESIAN_POINT('',(-0.0084,0.004,1.9209));
#1194=CARTESIAN_POINT('',(-0.0084,-0.004,1.9231));
#1195=CARTESIAN_POINT('',(-0.0084,-0.004,1.9209));
#1196=CARTESIAN_POINT('',(-0.0084,0.004,1.9391));
#1197=CARTESIAN_POINT('',(-0.0084,0.004,1.9369));
#1198=CARTESIAN_POINT('',(-0.0084,1.28894075610259E-17,1.7326));
#1199=CARTESIAN_POINT('',(-0.0084,0.,1.9431));
#1200=CARTESIAN_POINT('',(0.0084,0.,1.9431));
#1201=CARTESIAN_POINT('',(0.0084,0.004,1.9391));
#1202=CARTESIAN_POINT('',(0.0084,0.004,1.9369));
#1203=CARTESIAN_POINT('',(0.0084,-0.004,1.9231));
#1204=CARTESIAN_POINT('',(0.0084,-0.004,1.9209));
#1205=CARTESIAN_POINT('',(0.0084,0.004,1.9231));
#1206=CARTESIAN_POINT('',(0.0084,0.004,1.9209));
#1207=CARTESIAN_POINT('',(0.0084,-0.004,1.9391));
#1208=CARTESIAN_POINT('',(0.0084,-0.004,1.9369));
#1209=CARTESIAN_POINT('',(0.0084,1.28894075610259E-17,1.7326));
#1210=CARTESIAN_POINT('',(0.0084,0.,1.9431));
#1211=CARTESIAN_POINT('',(0.,0.,1.9431));
#1212=CARTESIAN_POINT('',(3.78169717762944E-16,-0.015,1.9251));
#1213=CARTESIAN_POINT('',(0.00300000000000038,-0.015,1.9251));
#1214=CARTESIAN_POINT('',(-0.00299999999999962,-0.01,1.9251));
#1215=CARTESIAN_POINT('',(0.00500000000000038,-0.015,1.9311));
#1216=CARTESIAN_POINT('',(0.00500000000000038,-0.015,1.9271));
#1217=CARTESIAN_POINT('',(0.00500000000000038,-0.0084,1.9351));
#1218=CARTESIAN_POINT('',(3.81639164714898E-16,-0.015,1.9371));
#1219=CARTESIAN_POINT('',(-0.00299999999999962,-0.015,1.9371));
#1220=CARTESIAN_POINT('',(0.00300000000000038,-0.01,1.9371));
#1221=CARTESIAN_POINT('',(-0.00499999999999963,-0.015,1.9311));
#1222=CARTESIAN_POINT('',(-0.00499999999999963,-0.0084,1.9271));
#1223=CARTESIAN_POINT('',(-0.00499999999999963,-0.015,1.9351));
#1224=CARTESIAN_POINT('',(-0.00499999999999963,-0.015,1.9311));
#1225=CARTESIAN_POINT('',(-0.00499999999999963,-0.015,1.9351));
#1226=CARTESIAN_POINT('',(-0.00499999999999963,0.01,1.9271));
#1227=CARTESIAN_POINT('',(3.81639164714898E-16,-0.015,1.9371));
#1228=CARTESIAN_POINT('',(0.00300000000000038,0.0084,1.9371));
#1229=CARTESIAN_POINT('',(-0.00299999999999962,-0.015,1.9371));
#1230=CARTESIAN_POINT('',(0.00500000000000038,-0.015,1.9311));
#1231=CARTESIAN_POINT('',(0.00500000000000038,0.01,1.9351));
#1232=CARTESIAN_POINT('',(0.00500000000000038,-0.015,1.9271));
#1233=CARTESIAN_POINT('',(3.78169717762944E-16,-0.015,1.9251));
#1234=CARTESIAN_POINT('',(-0.00299999999999962,0.0084,1.9251));
#1235=CARTESIAN_POINT('',(0.00300000000000038,-0.015,1.9251));
#1236=CARTESIAN_POINT('',(0.00300000000000038,-0.015,1.9271));
#1237=CARTESIAN_POINT('',(-0.00299999999999962,-0.015,1.9271));
#1238=CARTESIAN_POINT('',(-0.00299999999999962,-0.015,1.9351));
#1239=CARTESIAN_POINT('',(0.00300000000000038,-0.015,1.9351));
#1240=CARTESIAN_POINT('',(0.00300000000000038,-0.015,1.9351));
#1241=CARTESIAN_POINT('',(-0.00299999999999962,-0.015,1.9351));
#1242=CARTESIAN_POINT('',(-0.00299999999999962,-0.015,1.9271));
#1243=CARTESIAN_POINT('',(0.00300000000000038,-0.015,1.9271));
#1244=CARTESIAN_POINT('',(0.015,-0.004,1.9391));
#1245=CARTESIAN_POINT('',(0.015,0.004,1.9231));
#1246=CARTESIAN_POINT('',(0.015,-0.004,1.9231));
#1247=CARTESIAN_POINT('',(0.015,0.004,1.9391));
#1248=CARTESIAN_POINT('',(0.015,-0.004,1.9391));
#1249=CARTESIAN_POINT('',(0.015,0.004,1.9231));
#1250=CARTESIAN_POINT('',(0.015,-0.004,1.9231));
#1251=CARTESIAN_POINT('',(0.015,0.004,1.9391));
#1252=CARTESIAN_POINT('',(0.,-0.01,1.7326));
#1253=CARTESIAN_POINT('',(-0.0092,-0.01,1.7326));
#1254=CARTESIAN_POINT('',(-0.0092,0.0092,1.7326));
#1255=CARTESIAN_POINT('',(-0.0092,-0.0092,1.7326));
#1256=CARTESIAN_POINT('',(0.,0.0092,1.7326));
#1257=CARTESIAN_POINT('',(0.0092,0.0092,1.7326));
#1258=CARTESIAN_POINT('',(0.0092,-0.01,1.7326));
#1259=CARTESIAN_POINT('',(0.0092,-0.0092,1.7326));
#1260=CARTESIAN_POINT('',(0.,-0.0092,1.7326));
#1261=CARTESIAN_POINT('',(0.0092,0.,1.7272));
#1262=CARTESIAN_POINT('',(0.0092,0.0092,1.7272));
#1263=CARTESIAN_POINT('',(0.0092,0.0092,1.7072));
#1264=CARTESIAN_POINT('',(0.0092,-0.01,1.7072));
#1265=CARTESIAN_POINT('',(0.0092,-0.0092,1.7072));
#1266=CARTESIAN_POINT('',(0.0092,-0.0092,1.7272));
#1267=CARTESIAN_POINT('',(0.,0.0092,1.7272));
#1268=CARTESIAN_POINT('',(-0.0092,0.0092,1.7272));
#1269=CARTESIAN_POINT('',(-0.0092,0.0092,1.7072));
#1270=CARTESIAN_POINT('',(0.,0.0092,1.7072));
#1271=CARTESIAN_POINT('',(0.,-0.0092,1.7272));
#1272=CARTESIAN_POINT('',(-0.0092,-0.0092,1.7272));
#1273=CARTESIAN_POINT('',(-0.0092,-0.0092,1.7072));
#1274=CARTESIAN_POINT('',(0.,-0.0092,1.7072));
#1275=CARTESIAN_POINT('',(-0.0092,0.,1.7272));
#1276=CARTESIAN_POINT('',(-0.0092,-0.01,1.7072));
#1277=CARTESIAN_POINT('',(0.,-0.01,1.7072));
#1278=MECHANICAL_DESIGN_GEOMETRIC_PRESENTATION_REPRESENTATION('',(#771),
#1279);
#1279=(
GEOMETRIC_REPRESENTATION_CONTEXT(3)
GLOBAL_UNCERTAINTY_ASSIGNED_CONTEXT((#1280))
GLOBAL_UNIT_ASSIGNED_CONTEXT((#1283,#1282,#1281))
REPRESENTATION_CONTEXT('Part 11','TOP_LEVEL_ASSEMBLY_PART')
);
#1280=UNCERTAINTY_MEASURE_WITH_UNIT(LENGTH_MEASURE(1.E-8),#1283,
'DISTANCE_ACCURACY_VALUE','Maximum Tolerance applied to model');
#1281=(
NAMED_UNIT(*)
SI_UNIT($,.STERADIAN.)
SOLID_ANGLE_UNIT()
);
#1282=(
NAMED_UNIT(*)
PLANE_ANGLE_UNIT()
SI_UNIT($,.RADIAN.)
);
#1283=(
LENGTH_UNIT()
NAMED_UNIT(*)
SI_UNIT($,.METRE.)
);
#1284=PRODUCT_DEFINITION_SHAPE('','',#1285);
#1285=PRODUCT_DEFINITION('','',#1287,#1286);
#1286=PRODUCT_DEFINITION_CONTEXT('',#1293,'design');
#1287=PRODUCT_DEFINITION_FORMATION_WITH_SPECIFIED_SOURCE('','',#1289,
 .NOT_KNOWN.);
#1288=PRODUCT_RELATED_PRODUCT_CATEGORY('','',(#1289));
#1289=PRODUCT('Part 11','Part 11','Part 11',(#1291));
#1290=PRODUCT_CATEGORY('','');
#1291=PRODUCT_CONTEXT('',#1293,'mechanical');
#1292=APPLICATION_PROTOCOL_DEFINITION('international standard',
'ap242_managed_model_based_3d_engineering',2020,#1293);
#1293=APPLICATION_CONTEXT('managed model based 3d engineering');
ENDSEC;
END-ISO-10303-21;
