ISO-10303-21;
HEADER;
/* Generated by software containing ST-Developer
 * from STEP Tools, Inc. (www.steptools.com) 
 */
/* OPTION: using custom renumber hook */

FILE_DESCRIPTION(
/* description */ ('STEP AP242 Edition 2',
'CAx-IF Rec.Pracs.---Representation and Presentation of Product Manufa
cturing Information (PMI)---4.0---2014-10-13',
'CAx-IF Rec.Pracs.---3D Tessellated Geometry---0.4---2014-09-14','2;1',
'CAx-IF Rec.Pracs.---User Defined Attributes---1.5---2016-08-15'),
/* implementation_level */ '2;1');

FILE_NAME(
/* name */ 'first stage full - Part 1',
/* time_stamp */ '2026-08-27T12:02:10Z',
/* author */ (''),
/* organization */ (''),
/* preprocessor_version */ 'ST-DEVELOPER v20',
/* originating_system */ 'ONSHAPE BY PTC INC, 1.219',
/* authorisation */ '  ');

FILE_SCHEMA (('AP242_MANAGED_MODEL_BASED_3D_ENGINEERING_MIM_LF { 1 0 10303 442 3 1 4 }'));
ENDSEC;

DATA;
#10=SHAPE_REPRESENTATION_RELATIONSHIP('','',#453,#11);
#11=ADVANCED_BREP_SHAPE_REPRESENTATION('',(#451),#727);
#12=CYLINDRICAL_SURFACE('',#472,0.00165);
#13=CYLINDRICAL_SURFACE('',#474,0.00165);
#14=CYLINDRICAL_SURFACE('',#476,0.00165);
#15=CYLINDRICAL_SURFACE('',#478,0.00165);
#16=CYLINDRICAL_SURFACE('',#480,0.00165);
#17=CYLINDRICAL_SURFACE('',#482,0.00165);
#18=CYLINDRICAL_SURFACE('',#485,0.00165);
#19=CYLINDRICAL_SURFACE('',#487,0.00165);
#20=CIRCLE('',#456,0.00165);
#21=CIRCLE('',#457,0.00165);
#22=CIRCLE('',#459,0.00165);
#23=CIRCLE('',#460,0.00165);
#24=CIRCLE('',#462,0.00165);
#25=CIRCLE('',#463,0.00165);
#26=CIRCLE('',#465,0.00165);
#27=CIRCLE('',#466,0.00165);
#28=CIRCLE('',#473,0.00165);
#29=CIRCLE('',#475,0.00165);
#30=CIRCLE('',#477,0.00165);
#31=CIRCLE('',#479,0.00165);
#32=CIRCLE('',#481,0.00165);
#33=CIRCLE('',#483,0.00165);
#34=CIRCLE('',#486,0.00165);
#35=CIRCLE('',#488,0.00165);
#36=ORIENTED_EDGE('',*,*,#140,.F.);
#37=ORIENTED_EDGE('',*,*,#141,.T.);
#38=ORIENTED_EDGE('',*,*,#142,.T.);
#39=ORIENTED_EDGE('',*,*,#143,.T.);
#40=ORIENTED_EDGE('',*,*,#144,.T.);
#41=ORIENTED_EDGE('',*,*,#145,.T.);
#42=ORIENTED_EDGE('',*,*,#142,.F.);
#43=ORIENTED_EDGE('',*,*,#146,.T.);
#44=ORIENTED_EDGE('',*,*,#147,.T.);
#45=ORIENTED_EDGE('',*,*,#148,.T.);
#46=ORIENTED_EDGE('',*,*,#149,.T.);
#47=ORIENTED_EDGE('',*,*,#150,.T.);
#48=ORIENTED_EDGE('',*,*,#151,.F.);
#49=ORIENTED_EDGE('',*,*,#152,.T.);
#50=ORIENTED_EDGE('',*,*,#153,.F.);
#51=ORIENTED_EDGE('',*,*,#147,.F.);
#52=ORIENTED_EDGE('',*,*,#154,.F.);
#53=ORIENTED_EDGE('',*,*,#155,.F.);
#54=ORIENTED_EDGE('',*,*,#156,.F.);
#55=ORIENTED_EDGE('',*,*,#140,.T.);
#56=ORIENTED_EDGE('',*,*,#157,.F.);
#57=ORIENTED_EDGE('',*,*,#152,.F.);
#58=ORIENTED_EDGE('',*,*,#158,.F.);
#59=ORIENTED_EDGE('',*,*,#159,.F.);
#60=ORIENTED_EDGE('',*,*,#160,.T.);
#61=ORIENTED_EDGE('',*,*,#161,.T.);
#62=ORIENTED_EDGE('',*,*,#162,.T.);
#63=ORIENTED_EDGE('',*,*,#163,.T.);
#64=ORIENTED_EDGE('',*,*,#156,.T.);
#65=ORIENTED_EDGE('',*,*,#151,.T.);
#66=ORIENTED_EDGE('',*,*,#146,.F.);
#67=ORIENTED_EDGE('',*,*,#141,.F.);
#68=ORIENTED_EDGE('',*,*,#163,.F.);
#69=ORIENTED_EDGE('',*,*,#164,.T.);
#70=ORIENTED_EDGE('',*,*,#165,.T.);
#71=ORIENTED_EDGE('',*,*,#166,.T.);
#72=ORIENTED_EDGE('',*,*,#167,.T.);
#73=ORIENTED_EDGE('',*,*,#168,.T.);
#74=ORIENTED_EDGE('',*,*,#160,.F.);
#75=ORIENTED_EDGE('',*,*,#166,.F.);
#76=ORIENTED_EDGE('',*,*,#162,.F.);
#77=ORIENTED_EDGE('',*,*,#169,.T.);
#78=ORIENTED_EDGE('',*,*,#170,.T.);
#79=ORIENTED_EDGE('',*,*,#164,.F.);
#80=ORIENTED_EDGE('',*,*,#171,.T.);
#81=ORIENTED_EDGE('',*,*,#169,.F.);
#82=ORIENTED_EDGE('',*,*,#161,.F.);
#83=ORIENTED_EDGE('',*,*,#168,.F.);
#84=ORIENTED_EDGE('',*,*,#154,.T.);
#85=ORIENTED_EDGE('',*,*,#172,.F.);
#86=ORIENTED_EDGE('',*,*,#155,.T.);
#87=ORIENTED_EDGE('',*,*,#173,.F.);
#88=ORIENTED_EDGE('',*,*,#174,.T.);
#89=ORIENTED_EDGE('',*,*,#145,.F.);
#90=ORIENTED_EDGE('',*,*,#175,.T.);
#91=ORIENTED_EDGE('',*,*,#144,.F.);
#92=ORIENTED_EDGE('',*,*,#176,.T.);
#93=ORIENTED_EDGE('',*,*,#150,.F.);
#94=ORIENTED_EDGE('',*,*,#177,.T.);
#95=ORIENTED_EDGE('',*,*,#149,.F.);
#96=ORIENTED_EDGE('',*,*,#178,.T.);
#97=ORIENTED_EDGE('',*,*,#179,.T.);
#98=ORIENTED_EDGE('',*,*,#180,.F.);
#99=ORIENTED_EDGE('',*,*,#181,.F.);
#100=ORIENTED_EDGE('',*,*,#157,.T.);
#101=ORIENTED_EDGE('',*,*,#143,.F.);
#102=ORIENTED_EDGE('',*,*,#148,.F.);
#103=ORIENTED_EDGE('',*,*,#153,.T.);
#104=ORIENTED_EDGE('',*,*,#159,.T.);
#105=ORIENTED_EDGE('',*,*,#182,.T.);
#106=ORIENTED_EDGE('',*,*,#158,.T.);
#107=ORIENTED_EDGE('',*,*,#183,.T.);
#108=ORIENTED_EDGE('',*,*,#184,.F.);
#109=ORIENTED_EDGE('',*,*,#185,.T.);
#110=ORIENTED_EDGE('',*,*,#178,.F.);
#111=ORIENTED_EDGE('',*,*,#186,.F.);
#112=ORIENTED_EDGE('',*,*,#177,.F.);
#113=ORIENTED_EDGE('',*,*,#176,.F.);
#114=ORIENTED_EDGE('',*,*,#183,.F.);
#115=ORIENTED_EDGE('',*,*,#182,.F.);
#116=ORIENTED_EDGE('',*,*,#187,.F.);
#117=ORIENTED_EDGE('',*,*,#188,.T.);
#118=ORIENTED_EDGE('',*,*,#189,.T.);
#119=ORIENTED_EDGE('',*,*,#180,.T.);
#120=ORIENTED_EDGE('',*,*,#190,.F.);
#121=ORIENTED_EDGE('',*,*,#187,.T.);
#122=ORIENTED_EDGE('',*,*,#179,.F.);
#123=ORIENTED_EDGE('',*,*,#185,.F.);
#124=ORIENTED_EDGE('',*,*,#174,.F.);
#125=ORIENTED_EDGE('',*,*,#175,.F.);
#126=ORIENTED_EDGE('',*,*,#189,.F.);
#127=ORIENTED_EDGE('',*,*,#191,.T.);
#128=ORIENTED_EDGE('',*,*,#186,.T.);
#129=ORIENTED_EDGE('',*,*,#181,.T.);
#130=ORIENTED_EDGE('',*,*,#173,.T.);
#131=ORIENTED_EDGE('',*,*,#172,.T.);
#132=ORIENTED_EDGE('',*,*,#171,.F.);
#133=ORIENTED_EDGE('',*,*,#167,.F.);
#134=ORIENTED_EDGE('',*,*,#165,.F.);
#135=ORIENTED_EDGE('',*,*,#170,.F.);
#136=ORIENTED_EDGE('',*,*,#184,.T.);
#137=ORIENTED_EDGE('',*,*,#191,.F.);
#138=ORIENTED_EDGE('',*,*,#188,.F.);
#139=ORIENTED_EDGE('',*,*,#190,.T.);
#140=EDGE_CURVE('',#192,#193,#232,.T.);
#141=EDGE_CURVE('',#192,#194,#233,.T.);
#142=EDGE_CURVE('',#194,#195,#234,.T.);
#143=EDGE_CURVE('',#195,#193,#235,.T.);
#144=EDGE_CURVE('',#196,#196,#20,.T.);
#145=EDGE_CURVE('',#197,#197,#21,.T.);
#146=EDGE_CURVE('',#194,#198,#236,.T.);
#147=EDGE_CURVE('',#198,#199,#237,.T.);
#148=EDGE_CURVE('',#199,#195,#238,.T.);
#149=EDGE_CURVE('',#200,#200,#22,.T.);
#150=EDGE_CURVE('',#201,#201,#23,.T.);
#151=EDGE_CURVE('',#202,#198,#239,.T.);
#152=EDGE_CURVE('',#202,#203,#240,.T.);
#153=EDGE_CURVE('',#199,#203,#241,.T.);
#154=EDGE_CURVE('',#204,#204,#24,.T.);
#155=EDGE_CURVE('',#205,#205,#25,.T.);
#156=EDGE_CURVE('',#192,#202,#242,.T.);
#157=EDGE_CURVE('',#203,#193,#243,.T.);
#158=EDGE_CURVE('',#206,#206,#26,.T.);
#159=EDGE_CURVE('',#207,#207,#27,.T.);
#160=EDGE_CURVE('',#208,#209,#244,.T.);
#161=EDGE_CURVE('',#209,#210,#245,.T.);
#162=EDGE_CURVE('',#210,#211,#246,.T.);
#163=EDGE_CURVE('',#211,#208,#247,.T.);
#164=EDGE_CURVE('',#211,#212,#248,.T.);
#165=EDGE_CURVE('',#212,#213,#249,.T.);
#166=EDGE_CURVE('',#213,#208,#250,.T.);
#167=EDGE_CURVE('',#213,#214,#251,.T.);
#168=EDGE_CURVE('',#214,#209,#252,.T.);
#169=EDGE_CURVE('',#210,#215,#253,.T.);
#170=EDGE_CURVE('',#215,#212,#254,.T.);
#171=EDGE_CURVE('',#214,#215,#255,.T.);
#172=EDGE_CURVE('',#216,#216,#28,.T.);
#173=EDGE_CURVE('',#217,#217,#29,.T.);
#174=EDGE_CURVE('',#218,#218,#30,.T.);
#175=EDGE_CURVE('',#219,#219,#31,.T.);
#176=EDGE_CURVE('',#220,#220,#32,.T.);
#177=EDGE_CURVE('',#221,#221,#33,.T.);
#178=EDGE_CURVE('',#222,#223,#256,.T.);
#179=EDGE_CURVE('',#223,#224,#257,.T.);
#180=EDGE_CURVE('',#225,#224,#258,.T.);
#181=EDGE_CURVE('',#222,#225,#259,.T.);
#182=EDGE_CURVE('',#226,#226,#34,.T.);
#183=EDGE_CURVE('',#227,#227,#35,.T.);
#184=EDGE_CURVE('',#228,#229,#260,.T.);
#185=EDGE_CURVE('',#228,#223,#261,.T.);
#186=EDGE_CURVE('',#229,#222,#262,.T.);
#187=EDGE_CURVE('',#230,#224,#263,.T.);
#188=EDGE_CURVE('',#230,#231,#264,.T.);
#189=EDGE_CURVE('',#231,#225,#265,.T.);
#190=EDGE_CURVE('',#230,#228,#266,.T.);
#191=EDGE_CURVE('',#231,#229,#267,.T.);
#192=VERTEX_POINT('',#613);
#193=VERTEX_POINT('',#614);
#194=VERTEX_POINT('',#616);
#195=VERTEX_POINT('',#618);
#196=VERTEX_POINT('',#621);
#197=VERTEX_POINT('',#623);
#198=VERTEX_POINT('',#626);
#199=VERTEX_POINT('',#628);
#200=VERTEX_POINT('',#631);
#201=VERTEX_POINT('',#633);
#202=VERTEX_POINT('',#636);
#203=VERTEX_POINT('',#638);
#204=VERTEX_POINT('',#641);
#205=VERTEX_POINT('',#643);
#206=VERTEX_POINT('',#648);
#207=VERTEX_POINT('',#650);
#208=VERTEX_POINT('',#653);
#209=VERTEX_POINT('',#654);
#210=VERTEX_POINT('',#656);
#211=VERTEX_POINT('',#658);
#212=VERTEX_POINT('',#662);
#213=VERTEX_POINT('',#664);
#214=VERTEX_POINT('',#668);
#215=VERTEX_POINT('',#672);
#216=VERTEX_POINT('',#678);
#217=VERTEX_POINT('',#681);
#218=VERTEX_POINT('',#684);
#219=VERTEX_POINT('',#687);
#220=VERTEX_POINT('',#690);
#221=VERTEX_POINT('',#693);
#222=VERTEX_POINT('',#696);
#223=VERTEX_POINT('',#697);
#224=VERTEX_POINT('',#699);
#225=VERTEX_POINT('',#701);
#226=VERTEX_POINT('',#705);
#227=VERTEX_POINT('',#708);
#228=VERTEX_POINT('',#711);
#229=VERTEX_POINT('',#712);
#230=VERTEX_POINT('',#717);
#231=VERTEX_POINT('',#719);
#232=LINE('',#612,#268);
#233=LINE('',#615,#269);
#234=LINE('',#617,#270);
#235=LINE('',#619,#271);
#236=LINE('',#625,#272);
#237=LINE('',#627,#273);
#238=LINE('',#629,#274);
#239=LINE('',#635,#275);
#240=LINE('',#637,#276);
#241=LINE('',#639,#277);
#242=LINE('',#645,#278);
#243=LINE('',#646,#279);
#244=LINE('',#652,#280);
#245=LINE('',#655,#281);
#246=LINE('',#657,#282);
#247=LINE('',#659,#283);
#248=LINE('',#661,#284);
#249=LINE('',#663,#285);
#250=LINE('',#665,#286);
#251=LINE('',#667,#287);
#252=LINE('',#669,#288);
#253=LINE('',#671,#289);
#254=LINE('',#673,#290);
#255=LINE('',#675,#291);
#256=LINE('',#695,#292);
#257=LINE('',#698,#293);
#258=LINE('',#700,#294);
#259=LINE('',#702,#295);
#260=LINE('',#710,#296);
#261=LINE('',#713,#297);
#262=LINE('',#714,#298);
#263=LINE('',#716,#299);
#264=LINE('',#718,#300);
#265=LINE('',#720,#301);
#266=LINE('',#722,#302);
#267=LINE('',#724,#303);
#268=VECTOR('',#498,1.);
#269=VECTOR('',#499,1.);
#270=VECTOR('',#500,1.);
#271=VECTOR('',#501,1.);
#272=VECTOR('',#508,1.);
#273=VECTOR('',#509,1.);
#274=VECTOR('',#510,1.);
#275=VECTOR('',#517,1.);
#276=VECTOR('',#518,1.);
#277=VECTOR('',#519,1.);
#278=VECTOR('',#526,1.);
#279=VECTOR('',#527,1.);
#280=VECTOR('',#534,1.);
#281=VECTOR('',#535,1.);
#282=VECTOR('',#536,1.);
#283=VECTOR('',#537,1.);
#284=VECTOR('',#540,1.);
#285=VECTOR('',#541,1.);
#286=VECTOR('',#542,1.);
#287=VECTOR('',#545,1.);
#288=VECTOR('',#546,1.);
#289=VECTOR('',#549,1.);
#290=VECTOR('',#550,1.);
#291=VECTOR('',#553,1.);
#292=VECTOR('',#580,1.);
#293=VECTOR('',#581,1.);
#294=VECTOR('',#582,1.);
#295=VECTOR('',#583,1.);
#296=VECTOR('',#594,1.);
#297=VECTOR('',#595,1.);
#298=VECTOR('',#596,1.);
#299=VECTOR('',#599,1.);
#300=VECTOR('',#600,1.);
#301=VECTOR('',#601,1.);
#302=VECTOR('',#604,1.);
#303=VECTOR('',#607,1.);
#304=EDGE_LOOP('',(#36,#37,#38,#39));
#305=EDGE_LOOP('',(#40));
#306=EDGE_LOOP('',(#41));
#307=EDGE_LOOP('',(#42,#43,#44,#45));
#308=EDGE_LOOP('',(#46));
#309=EDGE_LOOP('',(#47));
#310=EDGE_LOOP('',(#48,#49,#50,#51));
#311=EDGE_LOOP('',(#52));
#312=EDGE_LOOP('',(#53));
#313=EDGE_LOOP('',(#54,#55,#56,#57));
#314=EDGE_LOOP('',(#58));
#315=EDGE_LOOP('',(#59));
#316=EDGE_LOOP('',(#60,#61,#62,#63));
#317=EDGE_LOOP('',(#64,#65,#66,#67));
#318=EDGE_LOOP('',(#68,#69,#70,#71));
#319=EDGE_LOOP('',(#72,#73,#74,#75));
#320=EDGE_LOOP('',(#76,#77,#78,#79));
#321=EDGE_LOOP('',(#80,#81,#82,#83));
#322=EDGE_LOOP('',(#84));
#323=EDGE_LOOP('',(#85));
#324=EDGE_LOOP('',(#86));
#325=EDGE_LOOP('',(#87));
#326=EDGE_LOOP('',(#88));
#327=EDGE_LOOP('',(#89));
#328=EDGE_LOOP('',(#90));
#329=EDGE_LOOP('',(#91));
#330=EDGE_LOOP('',(#92));
#331=EDGE_LOOP('',(#93));
#332=EDGE_LOOP('',(#94));
#333=EDGE_LOOP('',(#95));
#334=EDGE_LOOP('',(#96,#97,#98,#99));
#335=EDGE_LOOP('',(#100,#101,#102,#103));
#336=EDGE_LOOP('',(#104));
#337=EDGE_LOOP('',(#105));
#338=EDGE_LOOP('',(#106));
#339=EDGE_LOOP('',(#107));
#340=EDGE_LOOP('',(#108,#109,#110,#111));
#341=EDGE_LOOP('',(#112));
#342=EDGE_LOOP('',(#113));
#343=EDGE_LOOP('',(#114));
#344=EDGE_LOOP('',(#115));
#345=EDGE_LOOP('',(#116,#117,#118,#119));
#346=EDGE_LOOP('',(#120,#121,#122,#123));
#347=EDGE_LOOP('',(#124));
#348=EDGE_LOOP('',(#125));
#349=EDGE_LOOP('',(#126,#127,#128,#129));
#350=EDGE_LOOP('',(#130));
#351=EDGE_LOOP('',(#131));
#352=EDGE_LOOP('',(#132,#133,#134,#135));
#353=EDGE_LOOP('',(#136,#137,#138,#139));
#354=FACE_BOUND('',#304,.T.);
#355=FACE_BOUND('',#305,.T.);
#356=FACE_BOUND('',#306,.T.);
#357=FACE_BOUND('',#307,.T.);
#358=FACE_BOUND('',#308,.T.);
#359=FACE_BOUND('',#309,.T.);
#360=FACE_BOUND('',#310,.T.);
#361=FACE_BOUND('',#311,.T.);
#362=FACE_BOUND('',#312,.T.);
#363=FACE_BOUND('',#313,.T.);
#364=FACE_BOUND('',#314,.T.);
#365=FACE_BOUND('',#315,.T.);
#366=FACE_BOUND('',#316,.T.);
#367=FACE_BOUND('',#317,.T.);
#368=FACE_BOUND('',#318,.T.);
#369=FACE_BOUND('',#319,.T.);
#370=FACE_BOUND('',#320,.T.);
#371=FACE_BOUND('',#321,.T.);
#372=FACE_BOUND('',#322,.T.);
#373=FACE_BOUND('',#323,.T.);
#374=FACE_BOUND('',#324,.T.);
#375=FACE_BOUND('',#325,.T.);
#376=FACE_BOUND('',#326,.T.);
#377=FACE_BOUND('',#327,.T.);
#378=FACE_BOUND('',#328,.T.);
#379=FACE_BOUND('',#329,.T.);
#380=FACE_BOUND('',#330,.T.);
#381=FACE_BOUND('',#331,.T.);
#382=FACE_BOUND('',#332,.T.);
#383=FACE_BOUND('',#333,.T.);
#384=FACE_BOUND('',#334,.T.);
#385=FACE_BOUND('',#335,.T.);
#386=FACE_BOUND('',#336,.T.);
#387=FACE_BOUND('',#337,.T.);
#388=FACE_BOUND('',#338,.T.);
#389=FACE_BOUND('',#339,.T.);
#390=FACE_BOUND('',#340,.T.);
#391=FACE_BOUND('',#341,.T.);
#392=FACE_BOUND('',#342,.T.);
#393=FACE_BOUND('',#343,.T.);
#394=FACE_BOUND('',#344,.T.);
#395=FACE_BOUND('',#345,.T.);
#396=FACE_BOUND('',#346,.T.);
#397=FACE_BOUND('',#347,.T.);
#398=FACE_BOUND('',#348,.T.);
#399=FACE_BOUND('',#349,.T.);
#400=FACE_BOUND('',#350,.T.);
#401=FACE_BOUND('',#351,.T.);
#402=FACE_BOUND('',#352,.T.);
#403=FACE_BOUND('',#353,.T.);
#404=PLANE('',#455);
#405=PLANE('',#458);
#406=PLANE('',#461);
#407=PLANE('',#464);
#408=PLANE('',#467);
#409=PLANE('',#468);
#410=PLANE('',#469);
#411=PLANE('',#470);
#412=PLANE('',#471);
#413=PLANE('',#484);
#414=PLANE('',#489);
#415=PLANE('',#490);
#416=PLANE('',#491);
#417=PLANE('',#492);
#418=PLANE('',#493);
#419=ADVANCED_FACE('',(#354,#355,#356),#404,.F.);
#420=ADVANCED_FACE('',(#357,#358,#359),#405,.F.);
#421=ADVANCED_FACE('',(#360,#361,#362),#406,.T.);
#422=ADVANCED_FACE('',(#363,#364,#365),#407,.T.);
#423=ADVANCED_FACE('',(#366,#367),#408,.F.);
#424=ADVANCED_FACE('',(#368),#409,.F.);
#425=ADVANCED_FACE('',(#369),#410,.F.);
#426=ADVANCED_FACE('',(#370),#411,.F.);
#427=ADVANCED_FACE('',(#371),#412,.F.);
#428=ADVANCED_FACE('',(#372,#373),#12,.F.);
#429=ADVANCED_FACE('',(#374,#375),#13,.F.);
#430=ADVANCED_FACE('',(#376,#377),#14,.F.);
#431=ADVANCED_FACE('',(#378,#379),#15,.F.);
#432=ADVANCED_FACE('',(#380,#381),#16,.F.);
#433=ADVANCED_FACE('',(#382,#383),#17,.F.);
#434=ADVANCED_FACE('',(#384,#385),#413,.F.);
#435=ADVANCED_FACE('',(#386,#387),#18,.F.);
#436=ADVANCED_FACE('',(#388,#389),#19,.F.);
#437=ADVANCED_FACE('',(#390,#391,#392),#414,.T.);
#438=ADVANCED_FACE('',(#393,#394,#395),#415,.F.);
#439=ADVANCED_FACE('',(#396,#397,#398),#416,.T.);
#440=ADVANCED_FACE('',(#399,#400,#401),#417,.F.);
#441=ADVANCED_FACE('',(#402,#403),#418,.F.);
#442=CLOSED_SHELL('',(#419,#420,#421,#422,#423,#424,#425,#426,#427,#428,
#429,#430,#431,#432,#433,#434,#435,#436,#437,#438,#439,#440,#441));
#443=STYLED_ITEM('',(#444),#451);
#444=PRESENTATION_STYLE_ASSIGNMENT((#445));
#445=SURFACE_STYLE_USAGE(.BOTH.,#446);
#446=SURFACE_SIDE_STYLE('',(#447));
#447=SURFACE_STYLE_FILL_AREA(#448);
#448=FILL_AREA_STYLE('',(#449));
#449=FILL_AREA_STYLE_COLOUR('',#450);
#450=COLOUR_RGB('',0.372549019607843,0.654901960784314,0.23921568627451);
#451=MANIFOLD_SOLID_BREP('Part 1',#442);
#452=SHAPE_DEFINITION_REPRESENTATION(#732,#453);
#453=SHAPE_REPRESENTATION('Part 1',(#454),#727);
#454=AXIS2_PLACEMENT_3D('',#610,#494,#495);
#455=AXIS2_PLACEMENT_3D('',#611,#496,#497);
#456=AXIS2_PLACEMENT_3D('',#620,#502,#503);
#457=AXIS2_PLACEMENT_3D('',#622,#504,#505);
#458=AXIS2_PLACEMENT_3D('',#624,#506,#507);
#459=AXIS2_PLACEMENT_3D('',#630,#511,#512);
#460=AXIS2_PLACEMENT_3D('',#632,#513,#514);
#461=AXIS2_PLACEMENT_3D('',#634,#515,#516);
#462=AXIS2_PLACEMENT_3D('',#640,#520,#521);
#463=AXIS2_PLACEMENT_3D('',#642,#522,#523);
#464=AXIS2_PLACEMENT_3D('',#644,#524,#525);
#465=AXIS2_PLACEMENT_3D('',#647,#528,#529);
#466=AXIS2_PLACEMENT_3D('',#649,#530,#531);
#467=AXIS2_PLACEMENT_3D('',#651,#532,#533);
#468=AXIS2_PLACEMENT_3D('',#660,#538,#539);
#469=AXIS2_PLACEMENT_3D('',#666,#543,#544);
#470=AXIS2_PLACEMENT_3D('',#670,#547,#548);
#471=AXIS2_PLACEMENT_3D('',#674,#551,#552);
#472=AXIS2_PLACEMENT_3D('',#676,#554,#555);
#473=AXIS2_PLACEMENT_3D('',#677,#556,#557);
#474=AXIS2_PLACEMENT_3D('',#679,#558,#559);
#475=AXIS2_PLACEMENT_3D('',#680,#560,#561);
#476=AXIS2_PLACEMENT_3D('',#682,#562,#563);
#477=AXIS2_PLACEMENT_3D('',#683,#564,#565);
#478=AXIS2_PLACEMENT_3D('',#685,#566,#567);
#479=AXIS2_PLACEMENT_3D('',#686,#568,#569);
#480=AXIS2_PLACEMENT_3D('',#688,#570,#571);
#481=AXIS2_PLACEMENT_3D('',#689,#572,#573);
#482=AXIS2_PLACEMENT_3D('',#691,#574,#575);
#483=AXIS2_PLACEMENT_3D('',#692,#576,#577);
#484=AXIS2_PLACEMENT_3D('',#694,#578,#579);
#485=AXIS2_PLACEMENT_3D('',#703,#584,#585);
#486=AXIS2_PLACEMENT_3D('',#704,#586,#587);
#487=AXIS2_PLACEMENT_3D('',#706,#588,#589);
#488=AXIS2_PLACEMENT_3D('',#707,#590,#591);
#489=AXIS2_PLACEMENT_3D('',#709,#592,#593);
#490=AXIS2_PLACEMENT_3D('',#715,#597,#598);
#491=AXIS2_PLACEMENT_3D('',#721,#602,#603);
#492=AXIS2_PLACEMENT_3D('',#723,#605,#606);
#493=AXIS2_PLACEMENT_3D('',#725,#608,#609);
#494=DIRECTION('',(0.,0.,1.));
#495=DIRECTION('',(1.,0.,0.));
#496=DIRECTION('',(0.,-1.,0.));
#497=DIRECTION('',(0.,0.,-1.));
#498=DIRECTION('',(0.,0.,-1.));
#499=DIRECTION('',(1.,0.,0.));
#500=DIRECTION('',(0.,0.,-1.));
#501=DIRECTION('',(-1.,0.,0.));
#502=DIRECTION('',(0.,-1.,0.));
#503=DIRECTION('',(0.,0.,-1.));
#504=DIRECTION('',(0.,-1.,0.));
#505=DIRECTION('',(0.,0.,-1.));
#506=DIRECTION('',(1.,0.,0.));
#507=DIRECTION('',(0.,0.,-1.));
#508=DIRECTION('',(0.,1.,6.12323399573677E-17));
#509=DIRECTION('',(0.,0.,-1.));
#510=DIRECTION('',(0.,-1.,0.));
#511=DIRECTION('',(1.,0.,0.));
#512=DIRECTION('',(0.,0.,-1.));
#513=DIRECTION('',(1.,0.,0.));
#514=DIRECTION('',(0.,0.,-1.));
#515=DIRECTION('',(0.,-1.,0.));
#516=DIRECTION('',(0.,0.,-1.));
#517=DIRECTION('',(1.,0.,0.));
#518=DIRECTION('',(0.,0.,-1.));
#519=DIRECTION('',(-1.,0.,0.));
#520=DIRECTION('',(0.,-1.,0.));
#521=DIRECTION('',(0.,0.,-1.));
#522=DIRECTION('',(0.,-1.,0.));
#523=DIRECTION('',(0.,0.,-1.));
#524=DIRECTION('',(1.,0.,0.));
#525=DIRECTION('',(0.,0.,-1.));
#526=DIRECTION('',(0.,1.,6.12323399573677E-17));
#527=DIRECTION('',(0.,-1.,0.));
#528=DIRECTION('',(1.,0.,0.));
#529=DIRECTION('',(0.,0.,-1.));
#530=DIRECTION('',(1.,0.,0.));
#531=DIRECTION('',(0.,0.,-1.));
#532=DIRECTION('',(0.,6.12323399573677E-17,-1.));
#533=DIRECTION('',(1.,0.,0.));
#534=DIRECTION('',(3.74939945665465E-33,1.,6.12323399573677E-17));
#535=DIRECTION('',(-1.,0.,0.));
#536=DIRECTION('',(-3.74939945665465E-33,-1.,-6.12323399573677E-17));
#537=DIRECTION('',(1.,0.,0.));
#538=DIRECTION('',(0.,1.,0.));
#539=DIRECTION('',(-1.,0.,0.));
#540=DIRECTION('',(-6.12323399573677E-17,0.,-1.));
#541=DIRECTION('',(1.,0.,0.));
#542=DIRECTION('',(6.12323399573677E-17,0.,1.));
#543=DIRECTION('',(-1.,0.,6.12323399573677E-17));
#544=DIRECTION('',(0.,-1.,0.));
#545=DIRECTION('',(3.74939945665465E-33,1.,6.12323399573677E-17));
#546=DIRECTION('',(6.12323399573677E-17,0.,1.));
#547=DIRECTION('',(1.,0.,-6.12323399573677E-17));
#548=DIRECTION('',(0.,1.,0.));
#549=DIRECTION('',(-6.12323399573677E-17,0.,-1.));
#550=DIRECTION('',(-3.74939945665465E-33,-1.,-6.12323399573677E-17));
#551=DIRECTION('',(0.,-1.,0.));
#552=DIRECTION('',(1.,0.,0.));
#553=DIRECTION('',(-1.,0.,0.));
#554=DIRECTION('',(0.,-1.,0.));
#555=DIRECTION('',(0.,0.,-1.));
#556=DIRECTION('',(0.,-1.,0.));
#557=DIRECTION('',(0.,0.,-1.));
#558=DIRECTION('',(0.,-1.,0.));
#559=DIRECTION('',(0.,0.,-1.));
#560=DIRECTION('',(0.,-1.,0.));
#561=DIRECTION('',(0.,0.,-1.));
#562=DIRECTION('',(0.,-1.,0.));
#563=DIRECTION('',(0.,0.,-1.));
#564=DIRECTION('',(0.,-1.,0.));
#565=DIRECTION('',(0.,0.,-1.));
#566=DIRECTION('',(0.,-1.,0.));
#567=DIRECTION('',(0.,0.,-1.));
#568=DIRECTION('',(0.,-1.,0.));
#569=DIRECTION('',(0.,0.,-1.));
#570=DIRECTION('',(-1.,0.,0.));
#571=DIRECTION('',(0.,0.,1.));
#572=DIRECTION('',(1.,0.,0.));
#573=DIRECTION('',(0.,0.,-1.));
#574=DIRECTION('',(-1.,0.,0.));
#575=DIRECTION('',(0.,0.,1.));
#576=DIRECTION('',(1.,0.,0.));
#577=DIRECTION('',(0.,0.,-1.));
#578=DIRECTION('',(0.,0.,1.));
#579=DIRECTION('',(1.,0.,0.));
#580=DIRECTION('',(0.,-1.,0.));
#581=DIRECTION('',(-1.,0.,0.));
#582=DIRECTION('',(0.,-1.,0.));
#583=DIRECTION('',(-1.,0.,0.));
#584=DIRECTION('',(-1.,0.,0.));
#585=DIRECTION('',(0.,0.,1.));
#586=DIRECTION('',(-1.,0.,0.));
#587=DIRECTION('',(0.,0.,1.));
#588=DIRECTION('',(-1.,0.,0.));
#589=DIRECTION('',(0.,0.,1.));
#590=DIRECTION('',(-1.,0.,0.));
#591=DIRECTION('',(0.,0.,1.));
#592=DIRECTION('',(1.,0.,0.));
#593=DIRECTION('',(0.,0.,-1.));
#594=DIRECTION('',(0.,1.,6.12323399573677E-17));
#595=DIRECTION('',(0.,0.,-1.));
#596=DIRECTION('',(0.,0.,-1.));
#597=DIRECTION('',(1.,0.,0.));
#598=DIRECTION('',(0.,0.,-1.));
#599=DIRECTION('',(0.,0.,-1.));
#600=DIRECTION('',(0.,1.,6.12323399573677E-17));
#601=DIRECTION('',(0.,0.,-1.));
#602=DIRECTION('',(0.,-1.,0.));
#603=DIRECTION('',(0.,0.,-1.));
#604=DIRECTION('',(1.,0.,0.));
#605=DIRECTION('',(0.,-1.,0.));
#606=DIRECTION('',(0.,0.,-1.));
#607=DIRECTION('',(1.,0.,0.));
#608=DIRECTION('',(0.,6.12323399573677E-17,-1.));
#609=DIRECTION('',(1.,0.,0.));
#610=CARTESIAN_POINT('',(0.,0.,0.));
#611=CARTESIAN_POINT('',(-1.7347234759768E-18,-0.0084,1.5113));
#612=CARTESIAN_POINT('',(-0.0084,-0.0084,1.5113));
#613=CARTESIAN_POINT('',(-0.0084,-0.0084,0.0254));
#614=CARTESIAN_POINT('',(-0.0084,-0.0084,-0.2159));
#615=CARTESIAN_POINT('',(-1.7347234759768E-18,-0.0084,0.0254));
#616=CARTESIAN_POINT('',(0.0084,-0.0084,0.0254));
#617=CARTESIAN_POINT('',(0.0084,-0.0084,1.5113));
#618=CARTESIAN_POINT('',(0.0084,-0.0084,-0.2159));
#619=CARTESIAN_POINT('',(-1.7347234759768E-18,-0.0084,-0.2159));
#620=CARTESIAN_POINT('',(-0.003,-0.0084,-0.2139));
#621=CARTESIAN_POINT('',(-0.003,-0.0084,-0.21555));
#622=CARTESIAN_POINT('',(0.003,-0.0084,-0.2139));
#623=CARTESIAN_POINT('',(0.003,-0.0084,-0.21555));
#624=CARTESIAN_POINT('',(0.0084,0.,1.5113));
#625=CARTESIAN_POINT('',(0.0084,9.09851339426526E-17,0.0254));
#626=CARTESIAN_POINT('',(0.0084,0.0084,0.0254));
#627=CARTESIAN_POINT('',(0.0084,0.0084,1.5113));
#628=CARTESIAN_POINT('',(0.0084,0.0084,-0.2159));
#629=CARTESIAN_POINT('',(0.0084,0.,-0.2159));
#630=CARTESIAN_POINT('',(0.0084,0.0044,-0.2109));
#631=CARTESIAN_POINT('',(0.0084,0.0044,-0.21255));
#632=CARTESIAN_POINT('',(0.0084,-0.0044,-0.2109));
#633=CARTESIAN_POINT('',(0.0084,-0.0044,-0.21255));
#634=CARTESIAN_POINT('',(-1.7347234759768E-18,0.0084,1.5113));
#635=CARTESIAN_POINT('',(-1.7347234759768E-18,0.0084,0.0254));
#636=CARTESIAN_POINT('',(-0.0084,0.0084,0.0254));
#637=CARTESIAN_POINT('',(-0.0084,0.0084,1.5113));
#638=CARTESIAN_POINT('',(-0.0084,0.0084,-0.2159));
#639=CARTESIAN_POINT('',(-1.7347234759768E-18,0.0084,-0.2159));
#640=CARTESIAN_POINT('',(0.003,0.0084,-0.2139));
#641=CARTESIAN_POINT('',(0.003,0.0084,-0.21555));
#642=CARTESIAN_POINT('',(-0.003,0.0084,-0.2139));
#643=CARTESIAN_POINT('',(-0.003,0.0084,-0.21555));
#644=CARTESIAN_POINT('',(-0.0084,0.,1.5113));
#645=CARTESIAN_POINT('',(-0.0084,9.09851339426526E-17,0.0254));
#646=CARTESIAN_POINT('',(-0.0084,0.,-0.2159));
#647=CARTESIAN_POINT('',(-0.0084,0.0044,-0.2109));
#648=CARTESIAN_POINT('',(-0.0084,0.0044,-0.21255));
#649=CARTESIAN_POINT('',(-0.0084,-0.0044,-0.2109));
#650=CARTESIAN_POINT('',(-0.0084,-0.0044,-0.21255));
#651=CARTESIAN_POINT('',(0.0025,-0.01,0.0254));
#652=CARTESIAN_POINT('',(0.0092,-0.01,0.0254));
#653=CARTESIAN_POINT('',(0.0092,-0.0092,0.0254));
#654=CARTESIAN_POINT('',(0.0092,0.0092,0.0254));
#655=CARTESIAN_POINT('',(0.0025,0.0092,0.0254));
#656=CARTESIAN_POINT('',(-0.0092,0.0092,0.0254));
#657=CARTESIAN_POINT('',(-0.0092,-0.01,0.0254));
#658=CARTESIAN_POINT('',(-0.0092,-0.0092,0.0254));
#659=CARTESIAN_POINT('',(0.0025,-0.0092,0.0254));
#660=CARTESIAN_POINT('',(0.,-0.0092,2.77555756156289E-17));
#661=CARTESIAN_POINT('',(-0.0092,-0.0092,2.77555756156289E-17));
#662=CARTESIAN_POINT('',(-0.0092,-0.0092,2.77555756156289E-17));
#663=CARTESIAN_POINT('',(0.0025,-0.0092,2.77555756156289E-17));
#664=CARTESIAN_POINT('',(0.0092,-0.0092,0.));
#665=CARTESIAN_POINT('',(0.0092,-0.0092,2.77555756156289E-17));
#666=CARTESIAN_POINT('',(0.0092,0.,2.77555756156289E-17));
#667=CARTESIAN_POINT('',(0.0092,-0.01,2.77555756156289E-17));
#668=CARTESIAN_POINT('',(0.0092,0.0092,2.77555756156289E-17));
#669=CARTESIAN_POINT('',(0.0092,0.0092,2.77555756156289E-17));
#670=CARTESIAN_POINT('',(-0.0092,0.,2.77555756156289E-17));
#671=CARTESIAN_POINT('',(-0.0092,0.0092,2.77555756156289E-17));
#672=CARTESIAN_POINT('',(-0.0092,0.0092,2.77555756156289E-17));
#673=CARTESIAN_POINT('',(-0.0092,-0.01,2.77555756156289E-17));
#674=CARTESIAN_POINT('',(0.,0.0092,2.77555756156289E-17));
#675=CARTESIAN_POINT('',(0.0025,0.0092,2.77555756156289E-17));
#676=CARTESIAN_POINT('',(0.003,0.015,-0.2139));
#677=CARTESIAN_POINT('',(0.003,0.01,-0.2139));
#678=CARTESIAN_POINT('',(0.003,0.01,-0.21555));
#679=CARTESIAN_POINT('',(-0.003,0.015,-0.2139));
#680=CARTESIAN_POINT('',(-0.003,0.01,-0.2139));
#681=CARTESIAN_POINT('',(-0.003,0.01,-0.21555));
#682=CARTESIAN_POINT('',(0.003,0.015,-0.2139));
#683=CARTESIAN_POINT('',(0.003,-0.01,-0.2139));
#684=CARTESIAN_POINT('',(0.003,-0.01,-0.21555));
#685=CARTESIAN_POINT('',(-0.003,0.015,-0.2139));
#686=CARTESIAN_POINT('',(-0.003,-0.01,-0.2139));
#687=CARTESIAN_POINT('',(-0.003,-0.01,-0.21555));
#688=CARTESIAN_POINT('',(0.015,-0.0044,-0.2109));
#689=CARTESIAN_POINT('',(0.01,-0.0044,-0.2109));
#690=CARTESIAN_POINT('',(0.01,-0.0044,-0.21255));
#691=CARTESIAN_POINT('',(0.015,0.0044,-0.2109));
#692=CARTESIAN_POINT('',(0.01,0.0044,-0.2109));
#693=CARTESIAN_POINT('',(0.01,0.0044,-0.21255));
#694=CARTESIAN_POINT('',(0.,0.,-0.2159));
#695=CARTESIAN_POINT('',(0.01,0.,-0.2159));
#696=CARTESIAN_POINT('',(0.01,0.01,-0.2159));
#697=CARTESIAN_POINT('',(0.01,-0.01,-0.2159));
#698=CARTESIAN_POINT('',(0.,-0.01,-0.2159));
#699=CARTESIAN_POINT('',(-0.01,-0.01,-0.2159));
#700=CARTESIAN_POINT('',(-0.01,0.,-0.2159));
#701=CARTESIAN_POINT('',(-0.01,0.01,-0.2159));
#702=CARTESIAN_POINT('',(-1.7347234759768E-18,0.01,-0.2159));
#703=CARTESIAN_POINT('',(0.015,-0.0044,-0.2109));
#704=CARTESIAN_POINT('',(-0.01,-0.0044,-0.2109));
#705=CARTESIAN_POINT('',(-0.01,-0.0044,-0.20925));
#706=CARTESIAN_POINT('',(0.015,0.0044,-0.2109));
#707=CARTESIAN_POINT('',(-0.01,0.0044,-0.2109));
#708=CARTESIAN_POINT('',(-0.01,0.0044,-0.20925));
#709=CARTESIAN_POINT('',(0.01,0.,1.5113));
#710=CARTESIAN_POINT('',(0.01,9.25404353775698E-17,0.));
#711=CARTESIAN_POINT('',(0.01,-0.01,0.));
#712=CARTESIAN_POINT('',(0.01,0.01,0.));
#713=CARTESIAN_POINT('',(0.01,-0.01,1.5113));
#714=CARTESIAN_POINT('',(0.01,0.01,1.5113));
#715=CARTESIAN_POINT('',(-0.01,0.,1.5113));
#716=CARTESIAN_POINT('',(-0.01,-0.01,1.5113));
#717=CARTESIAN_POINT('',(-0.01,-0.01,0.));
#718=CARTESIAN_POINT('',(-0.01,9.25404353775698E-17,0.));
#719=CARTESIAN_POINT('',(-0.01,0.01,0.));
#720=CARTESIAN_POINT('',(-0.01,0.01,1.5113));
#721=CARTESIAN_POINT('',(0.,-0.01,1.5113));
#722=CARTESIAN_POINT('',(0.,-0.01,0.));
#723=CARTESIAN_POINT('',(-1.7347234759768E-18,0.01,1.5113));
#724=CARTESIAN_POINT('',(-1.7347234759768E-18,0.01,0.));
#725=CARTESIAN_POINT('',(0.0025,-0.01,2.77555756156289E-17));
#726=MECHANICAL_DESIGN_GEOMETRIC_PRESENTATION_REPRESENTATION('',(#443),
#727);
#727=(
GEOMETRIC_REPRESENTATION_CONTEXT(3)
GLOBAL_UNCERTAINTY_ASSIGNED_CONTEXT((#728))
GLOBAL_UNIT_ASSIGNED_CONTEXT((#731,#730,#729))
REPRESENTATION_CONTEXT('Part 1','TOP_LEVEL_ASSEMBLY_PART')
);
#728=UNCERTAINTY_MEASURE_WITH_UNIT(LENGTH_MEASURE(1.E-8),#731,
'DISTANCE_ACCURACY_VALUE','Maximum Tolerance applied to model');
#729=(
NAMED_UNIT(*)
SI_UNIT($,.STERADIAN.)
SOLID_ANGLE_UNIT()
);
#730=(
NAMED_UNIT(*)
PLANE_ANGLE_UNIT()
SI_UNIT($,.RADIAN.)
);
#731=(
LENGTH_UNIT()
NAMED_UNIT(*)
SI_UNIT($,.METRE.)
);
#732=PRODUCT_DEFINITION_SHAPE('','',#733);
#733=PRODUCT_DEFINITION('','',#735,#734);
#734=PRODUCT_DEFINITION_CONTEXT('',#741,'design');
#735=PRODUCT_DEFINITION_FORMATION_WITH_SPECIFIED_SOURCE('','',#737,
 .NOT_KNOWN.);
#736=PRODUCT_RELATED_PRODUCT_CATEGORY('','',(#737));
#737=PRODUCT('Part 1','Part 1','Part 1',(#739));
#738=PRODUCT_CATEGORY('','');
#739=PRODUCT_CONTEXT('',#741,'mechanical');
#740=APPLICATION_PROTOCOL_DEFINITION('international standard',
'ap242_managed_model_based_3d_engineering',2020,#741);
#741=APPLICATION_CONTEXT('managed model based 3d engineering');
ENDSEC;
END-ISO-10303-21;
