ISO-10303-21;
HEADER;
/* Generated by software containing ST-Developer
 * from STEP Tools, Inc. (www.steptools.com) 
 */
/* OPTION: using custom renumber hook */

FILE_DESCRIPTION(
/* description */ ('STEP AP242 Edition 2',
'CAx-IF Rec.Pracs.---Representation and Presentation of Product Manufa
cturing Information (PMI)---4.0---2014-10-13',
'CAx-IF Rec.Pracs.---3D Tessellated Geometry---0.4---2014-09-14','2;1',
'CAx-IF Rec.Pracs.---User Defined Attributes---1.5---2016-08-15'),
/* implementation_level */ '2;1');

FILE_NAME(
/* name */ 'first stage full - Part 2',
/* time_stamp */ '2026-08-27T12:00:17Z',
/* author */ (''),
/* organization */ (''),
/* preprocessor_version */ 'ST-DEVELOPER v20',
/* originating_system */ 'ONSHAPE BY PTC INC, 1.219',
/* authorisation */ '  ');

FILE_SCHEMA (('AP242_MANAGED_MODEL_BASED_3D_ENGINEERING_MIM_LF { 1 0 10303 442 3 1 4 }'));
ENDSEC;

DATA;
#10=SHAPE_REPRESENTATION_RELATIONSHIP('','',#383,#11);
#11=ADVANCED_BREP_SHAPE_REPRESENTATION('',(#381),#597);
#12=ORIENTED_EDGE('',*,*,#108,.T.);
#13=ORIENTED_EDGE('',*,*,#109,.T.);
#14=ORIENTED_EDGE('',*,*,#110,.F.);
#15=ORIENTED_EDGE('',*,*,#111,.F.);
#16=ORIENTED_EDGE('',*,*,#112,.F.);
#17=ORIENTED_EDGE('',*,*,#113,.F.);
#18=ORIENTED_EDGE('',*,*,#114,.F.);
#19=ORIENTED_EDGE('',*,*,#115,.F.);
#20=ORIENTED_EDGE('',*,*,#113,.T.);
#21=ORIENTED_EDGE('',*,*,#116,.T.);
#22=ORIENTED_EDGE('',*,*,#117,.F.);
#23=ORIENTED_EDGE('',*,*,#118,.T.);
#24=ORIENTED_EDGE('',*,*,#119,.F.);
#25=ORIENTED_EDGE('',*,*,#120,.T.);
#26=ORIENTED_EDGE('',*,*,#115,.T.);
#27=ORIENTED_EDGE('',*,*,#121,.F.);
#28=ORIENTED_EDGE('',*,*,#122,.F.);
#29=ORIENTED_EDGE('',*,*,#121,.T.);
#30=ORIENTED_EDGE('',*,*,#114,.T.);
#31=ORIENTED_EDGE('',*,*,#118,.F.);
#32=ORIENTED_EDGE('',*,*,#109,.F.);
#33=ORIENTED_EDGE('',*,*,#123,.T.);
#34=ORIENTED_EDGE('',*,*,#124,.T.);
#35=ORIENTED_EDGE('',*,*,#125,.F.);
#36=ORIENTED_EDGE('',*,*,#126,.F.);
#37=ORIENTED_EDGE('',*,*,#111,.T.);
#38=ORIENTED_EDGE('',*,*,#127,.T.);
#39=ORIENTED_EDGE('',*,*,#128,.F.);
#40=ORIENTED_EDGE('',*,*,#108,.F.);
#41=ORIENTED_EDGE('',*,*,#126,.T.);
#42=ORIENTED_EDGE('',*,*,#129,.T.);
#43=ORIENTED_EDGE('',*,*,#123,.F.);
#44=ORIENTED_EDGE('',*,*,#127,.F.);
#45=ORIENTED_EDGE('',*,*,#110,.T.);
#46=ORIENTED_EDGE('',*,*,#125,.T.);
#47=ORIENTED_EDGE('',*,*,#130,.F.);
#48=ORIENTED_EDGE('',*,*,#116,.F.);
#49=ORIENTED_EDGE('',*,*,#112,.T.);
#50=ORIENTED_EDGE('',*,*,#120,.F.);
#51=ORIENTED_EDGE('',*,*,#131,.F.);
#52=ORIENTED_EDGE('',*,*,#132,.T.);
#53=ORIENTED_EDGE('',*,*,#133,.F.);
#54=ORIENTED_EDGE('',*,*,#134,.F.);
#55=ORIENTED_EDGE('',*,*,#135,.T.);
#56=ORIENTED_EDGE('',*,*,#122,.T.);
#57=ORIENTED_EDGE('',*,*,#117,.T.);
#58=ORIENTED_EDGE('',*,*,#131,.T.);
#59=ORIENTED_EDGE('',*,*,#119,.T.);
#60=ORIENTED_EDGE('',*,*,#136,.T.);
#61=ORIENTED_EDGE('',*,*,#137,.T.);
#62=ORIENTED_EDGE('',*,*,#138,.F.);
#63=ORIENTED_EDGE('',*,*,#132,.F.);
#64=ORIENTED_EDGE('',*,*,#139,.T.);
#65=ORIENTED_EDGE('',*,*,#140,.F.);
#66=ORIENTED_EDGE('',*,*,#141,.F.);
#67=ORIENTED_EDGE('',*,*,#134,.T.);
#68=ORIENTED_EDGE('',*,*,#141,.T.);
#69=ORIENTED_EDGE('',*,*,#142,.T.);
#70=ORIENTED_EDGE('',*,*,#136,.F.);
#71=ORIENTED_EDGE('',*,*,#135,.F.);
#72=ORIENTED_EDGE('',*,*,#138,.T.);
#73=ORIENTED_EDGE('',*,*,#143,.F.);
#74=ORIENTED_EDGE('',*,*,#139,.F.);
#75=ORIENTED_EDGE('',*,*,#133,.T.);
#76=ORIENTED_EDGE('',*,*,#144,.F.);
#77=ORIENTED_EDGE('',*,*,#145,.F.);
#78=ORIENTED_EDGE('',*,*,#146,.F.);
#79=ORIENTED_EDGE('',*,*,#147,.F.);
#80=ORIENTED_EDGE('',*,*,#129,.F.);
#81=ORIENTED_EDGE('',*,*,#128,.T.);
#82=ORIENTED_EDGE('',*,*,#130,.T.);
#83=ORIENTED_EDGE('',*,*,#124,.F.);
#84=ORIENTED_EDGE('',*,*,#148,.F.);
#85=ORIENTED_EDGE('',*,*,#149,.F.);
#86=ORIENTED_EDGE('',*,*,#150,.T.);
#87=ORIENTED_EDGE('',*,*,#144,.T.);
#88=ORIENTED_EDGE('',*,*,#137,.F.);
#89=ORIENTED_EDGE('',*,*,#142,.F.);
#90=ORIENTED_EDGE('',*,*,#140,.T.);
#91=ORIENTED_EDGE('',*,*,#143,.T.);
#92=ORIENTED_EDGE('',*,*,#151,.T.);
#93=ORIENTED_EDGE('',*,*,#149,.T.);
#94=ORIENTED_EDGE('',*,*,#152,.T.);
#95=ORIENTED_EDGE('',*,*,#153,.T.);
#96=ORIENTED_EDGE('',*,*,#150,.F.);
#97=ORIENTED_EDGE('',*,*,#151,.F.);
#98=ORIENTED_EDGE('',*,*,#154,.F.);
#99=ORIENTED_EDGE('',*,*,#145,.T.);
#100=ORIENTED_EDGE('',*,*,#155,.F.);
#101=ORIENTED_EDGE('',*,*,#146,.T.);
#102=ORIENTED_EDGE('',*,*,#154,.T.);
#103=ORIENTED_EDGE('',*,*,#153,.F.);
#104=ORIENTED_EDGE('',*,*,#152,.F.);
#105=ORIENTED_EDGE('',*,*,#148,.T.);
#106=ORIENTED_EDGE('',*,*,#147,.T.);
#107=ORIENTED_EDGE('',*,*,#155,.T.);
#108=EDGE_CURVE('',#156,#157,#188,.T.);
#109=EDGE_CURVE('',#157,#158,#189,.T.);
#110=EDGE_CURVE('',#159,#158,#190,.T.);
#111=EDGE_CURVE('',#156,#159,#191,.T.);
#112=EDGE_CURVE('',#160,#161,#192,.T.);
#113=EDGE_CURVE('',#162,#160,#193,.T.);
#114=EDGE_CURVE('',#163,#162,#194,.T.);
#115=EDGE_CURVE('',#161,#163,#195,.T.);
#116=EDGE_CURVE('',#160,#164,#196,.T.);
#117=EDGE_CURVE('',#165,#164,#197,.T.);
#118=EDGE_CURVE('',#165,#162,#198,.T.);
#119=EDGE_CURVE('',#166,#167,#199,.T.);
#120=EDGE_CURVE('',#166,#161,#200,.T.);
#121=EDGE_CURVE('',#167,#163,#201,.T.);
#122=EDGE_CURVE('',#167,#165,#202,.T.);
#123=EDGE_CURVE('',#157,#168,#203,.T.);
#124=EDGE_CURVE('',#168,#169,#204,.T.);
#125=EDGE_CURVE('',#158,#169,#205,.T.);
#126=EDGE_CURVE('',#156,#170,#206,.T.);
#127=EDGE_CURVE('',#159,#171,#207,.T.);
#128=EDGE_CURVE('',#170,#171,#208,.T.);
#129=EDGE_CURVE('',#170,#168,#209,.T.);
#130=EDGE_CURVE('',#171,#169,#210,.T.);
#131=EDGE_CURVE('',#164,#166,#211,.T.);
#132=EDGE_CURVE('',#172,#173,#212,.T.);
#133=EDGE_CURVE('',#174,#173,#213,.T.);
#134=EDGE_CURVE('',#175,#174,#214,.T.);
#135=EDGE_CURVE('',#175,#172,#215,.T.);
#136=EDGE_CURVE('',#172,#176,#216,.T.);
#137=EDGE_CURVE('',#176,#177,#217,.T.);
#138=EDGE_CURVE('',#173,#177,#218,.T.);
#139=EDGE_CURVE('',#174,#178,#219,.T.);
#140=EDGE_CURVE('',#179,#178,#220,.T.);
#141=EDGE_CURVE('',#175,#179,#221,.T.);
#142=EDGE_CURVE('',#179,#176,#222,.T.);
#143=EDGE_CURVE('',#178,#177,#223,.T.);
#144=EDGE_CURVE('',#180,#181,#224,.T.);
#145=EDGE_CURVE('',#182,#180,#225,.T.);
#146=EDGE_CURVE('',#183,#182,#226,.T.);
#147=EDGE_CURVE('',#181,#183,#227,.T.);
#148=EDGE_CURVE('',#184,#181,#228,.T.);
#149=EDGE_CURVE('',#185,#184,#229,.T.);
#150=EDGE_CURVE('',#185,#180,#230,.T.);
#151=EDGE_CURVE('',#186,#185,#231,.T.);
#152=EDGE_CURVE('',#184,#187,#232,.T.);
#153=EDGE_CURVE('',#187,#186,#233,.T.);
#154=EDGE_CURVE('',#182,#186,#234,.T.);
#155=EDGE_CURVE('',#183,#187,#235,.T.);
#156=VERTEX_POINT('',#498);
#157=VERTEX_POINT('',#499);
#158=VERTEX_POINT('',#501);
#159=VERTEX_POINT('',#503);
#160=VERTEX_POINT('',#506);
#161=VERTEX_POINT('',#507);
#162=VERTEX_POINT('',#509);
#163=VERTEX_POINT('',#511);
#164=VERTEX_POINT('',#515);
#165=VERTEX_POINT('',#517);
#166=VERTEX_POINT('',#521);
#167=VERTEX_POINT('',#522);
#168=VERTEX_POINT('',#529);
#169=VERTEX_POINT('',#531);
#170=VERTEX_POINT('',#535);
#171=VERTEX_POINT('',#537);
#172=VERTEX_POINT('',#547);
#173=VERTEX_POINT('',#548);
#174=VERTEX_POINT('',#550);
#175=VERTEX_POINT('',#552);
#176=VERTEX_POINT('',#556);
#177=VERTEX_POINT('',#558);
#178=VERTEX_POINT('',#562);
#179=VERTEX_POINT('',#564);
#180=VERTEX_POINT('',#572);
#181=VERTEX_POINT('',#573);
#182=VERTEX_POINT('',#575);
#183=VERTEX_POINT('',#577);
#184=VERTEX_POINT('',#581);
#185=VERTEX_POINT('',#583);
#186=VERTEX_POINT('',#587);
#187=VERTEX_POINT('',#589);
#188=LINE('',#497,#236);
#189=LINE('',#500,#237);
#190=LINE('',#502,#238);
#191=LINE('',#504,#239);
#192=LINE('',#505,#240);
#193=LINE('',#508,#241);
#194=LINE('',#510,#242);
#195=LINE('',#512,#243);
#196=LINE('',#514,#244);
#197=LINE('',#516,#245);
#198=LINE('',#518,#246);
#199=LINE('',#520,#247);
#200=LINE('',#523,#248);
#201=LINE('',#524,#249);
#202=LINE('',#526,#250);
#203=LINE('',#528,#251);
#204=LINE('',#530,#252);
#205=LINE('',#532,#253);
#206=LINE('',#534,#254);
#207=LINE('',#536,#255);
#208=LINE('',#538,#256);
#209=LINE('',#540,#257);
#210=LINE('',#542,#258);
#211=LINE('',#544,#259);
#212=LINE('',#546,#260);
#213=LINE('',#549,#261);
#214=LINE('',#551,#262);
#215=LINE('',#553,#263);
#216=LINE('',#555,#264);
#217=LINE('',#557,#265);
#218=LINE('',#559,#266);
#219=LINE('',#561,#267);
#220=LINE('',#563,#268);
#221=LINE('',#565,#269);
#222=LINE('',#567,#270);
#223=LINE('',#569,#271);
#224=LINE('',#571,#272);
#225=LINE('',#574,#273);
#226=LINE('',#576,#274);
#227=LINE('',#578,#275);
#228=LINE('',#580,#276);
#229=LINE('',#582,#277);
#230=LINE('',#584,#278);
#231=LINE('',#586,#279);
#232=LINE('',#588,#280);
#233=LINE('',#590,#281);
#234=LINE('',#592,#282);
#235=LINE('',#594,#283);
#236=VECTOR('',#409,1.);
#237=VECTOR('',#410,1.);
#238=VECTOR('',#411,1.);
#239=VECTOR('',#412,1.);
#240=VECTOR('',#413,1.);
#241=VECTOR('',#414,1.);
#242=VECTOR('',#415,1.);
#243=VECTOR('',#416,1.);
#244=VECTOR('',#419,1.);
#245=VECTOR('',#420,1.);
#246=VECTOR('',#421,1.);
#247=VECTOR('',#424,1.);
#248=VECTOR('',#425,1.);
#249=VECTOR('',#426,1.);
#250=VECTOR('',#429,1.);
#251=VECTOR('',#432,1.);
#252=VECTOR('',#433,1.);
#253=VECTOR('',#434,1.);
#254=VECTOR('',#437,1.);
#255=VECTOR('',#438,1.);
#256=VECTOR('',#439,1.);
#257=VECTOR('',#442,1.);
#258=VECTOR('',#445,1.);
#259=VECTOR('',#448,1.);
#260=VECTOR('',#451,1.);
#261=VECTOR('',#452,1.);
#262=VECTOR('',#453,1.);
#263=VECTOR('',#454,1.);
#264=VECTOR('',#457,1.);
#265=VECTOR('',#458,1.);
#266=VECTOR('',#459,1.);
#267=VECTOR('',#462,1.);
#268=VECTOR('',#463,1.);
#269=VECTOR('',#464,1.);
#270=VECTOR('',#467,1.);
#271=VECTOR('',#470,1.);
#272=VECTOR('',#473,1.);
#273=VECTOR('',#474,1.);
#274=VECTOR('',#475,1.);
#275=VECTOR('',#476,1.);
#276=VECTOR('',#479,1.);
#277=VECTOR('',#480,1.);
#278=VECTOR('',#481,1.);
#279=VECTOR('',#484,1.);
#280=VECTOR('',#485,1.);
#281=VECTOR('',#486,1.);
#282=VECTOR('',#489,1.);
#283=VECTOR('',#492,1.);
#284=EDGE_LOOP('',(#12,#13,#14,#15));
#285=EDGE_LOOP('',(#16,#17,#18,#19));
#286=EDGE_LOOP('',(#20,#21,#22,#23));
#287=EDGE_LOOP('',(#24,#25,#26,#27));
#288=EDGE_LOOP('',(#28,#29,#30,#31));
#289=EDGE_LOOP('',(#32,#33,#34,#35));
#290=EDGE_LOOP('',(#36,#37,#38,#39));
#291=EDGE_LOOP('',(#40,#41,#42,#43));
#292=EDGE_LOOP('',(#44,#45,#46,#47));
#293=EDGE_LOOP('',(#48,#49,#50,#51));
#294=EDGE_LOOP('',(#52,#53,#54,#55));
#295=EDGE_LOOP('',(#56,#57,#58,#59));
#296=EDGE_LOOP('',(#60,#61,#62,#63));
#297=EDGE_LOOP('',(#64,#65,#66,#67));
#298=EDGE_LOOP('',(#68,#69,#70,#71));
#299=EDGE_LOOP('',(#72,#73,#74,#75));
#300=EDGE_LOOP('',(#76,#77,#78,#79));
#301=EDGE_LOOP('',(#80,#81,#82,#83));
#302=EDGE_LOOP('',(#84,#85,#86,#87));
#303=EDGE_LOOP('',(#88,#89,#90,#91));
#304=EDGE_LOOP('',(#92,#93,#94,#95));
#305=EDGE_LOOP('',(#96,#97,#98,#99));
#306=EDGE_LOOP('',(#100,#101,#102,#103));
#307=EDGE_LOOP('',(#104,#105,#106,#107));
#308=FACE_BOUND('',#284,.T.);
#309=FACE_BOUND('',#285,.T.);
#310=FACE_BOUND('',#286,.T.);
#311=FACE_BOUND('',#287,.T.);
#312=FACE_BOUND('',#288,.T.);
#313=FACE_BOUND('',#289,.T.);
#314=FACE_BOUND('',#290,.T.);
#315=FACE_BOUND('',#291,.T.);
#316=FACE_BOUND('',#292,.T.);
#317=FACE_BOUND('',#293,.T.);
#318=FACE_BOUND('',#294,.T.);
#319=FACE_BOUND('',#295,.T.);
#320=FACE_BOUND('',#296,.T.);
#321=FACE_BOUND('',#297,.T.);
#322=FACE_BOUND('',#298,.T.);
#323=FACE_BOUND('',#299,.T.);
#324=FACE_BOUND('',#300,.T.);
#325=FACE_BOUND('',#301,.T.);
#326=FACE_BOUND('',#302,.T.);
#327=FACE_BOUND('',#303,.T.);
#328=FACE_BOUND('',#304,.T.);
#329=FACE_BOUND('',#305,.T.);
#330=FACE_BOUND('',#306,.T.);
#331=FACE_BOUND('',#307,.T.);
#332=PLANE('',#385);
#333=PLANE('',#386);
#334=PLANE('',#387);
#335=PLANE('',#388);
#336=PLANE('',#389);
#337=PLANE('',#390);
#338=PLANE('',#391);
#339=PLANE('',#392);
#340=PLANE('',#393);
#341=PLANE('',#394);
#342=PLANE('',#395);
#343=PLANE('',#396);
#344=PLANE('',#397);
#345=PLANE('',#398);
#346=PLANE('',#399);
#347=PLANE('',#400);
#348=PLANE('',#401);
#349=PLANE('',#402);
#350=PLANE('',#403);
#351=PLANE('',#404);
#352=ADVANCED_FACE('',(#308,#309),#332,.F.);
#353=ADVANCED_FACE('',(#310),#333,.T.);
#354=ADVANCED_FACE('',(#311),#334,.T.);
#355=ADVANCED_FACE('',(#312),#335,.T.);
#356=ADVANCED_FACE('',(#313),#336,.T.);
#357=ADVANCED_FACE('',(#314),#337,.F.);
#358=ADVANCED_FACE('',(#315),#338,.T.);
#359=ADVANCED_FACE('',(#316),#339,.F.);
#360=ADVANCED_FACE('',(#317),#340,.T.);
#361=ADVANCED_FACE('',(#318,#319),#341,.F.);
#362=ADVANCED_FACE('',(#320),#342,.T.);
#363=ADVANCED_FACE('',(#321),#343,.F.);
#364=ADVANCED_FACE('',(#322),#344,.T.);
#365=ADVANCED_FACE('',(#323),#345,.F.);
#366=ADVANCED_FACE('',(#324,#325),#346,.T.);
#367=ADVANCED_FACE('',(#326),#347,.T.);
#368=ADVANCED_FACE('',(#327,#328),#348,.T.);
#369=ADVANCED_FACE('',(#329),#349,.T.);
#370=ADVANCED_FACE('',(#330),#350,.T.);
#371=ADVANCED_FACE('',(#331),#351,.T.);
#372=CLOSED_SHELL('',(#352,#353,#354,#355,#356,#357,#358,#359,#360,#361,
#362,#363,#364,#365,#366,#367,#368,#369,#370,#371));
#373=STYLED_ITEM('',(#374),#381);
#374=PRESENTATION_STYLE_ASSIGNMENT((#375));
#375=SURFACE_STYLE_USAGE(.BOTH.,#376);
#376=SURFACE_SIDE_STYLE('',(#377));
#377=SURFACE_STYLE_FILL_AREA(#378);
#378=FILL_AREA_STYLE('',(#379));
#379=FILL_AREA_STYLE_COLOUR('',#380);
#380=COLOUR_RGB('',0.372549019607843,0.654901960784314,0.23921568627451);
#381=MANIFOLD_SOLID_BREP('Part 2',#372);
#382=SHAPE_DEFINITION_REPRESENTATION(#602,#383);
#383=SHAPE_REPRESENTATION('Part 2',(#384),#597);
#384=AXIS2_PLACEMENT_3D('',#495,#405,#406);
#385=AXIS2_PLACEMENT_3D('',#496,#407,#408);
#386=AXIS2_PLACEMENT_3D('',#513,#417,#418);
#387=AXIS2_PLACEMENT_3D('',#519,#422,#423);
#388=AXIS2_PLACEMENT_3D('',#525,#427,#428);
#389=AXIS2_PLACEMENT_3D('',#527,#430,#431);
#390=AXIS2_PLACEMENT_3D('',#533,#435,#436);
#391=AXIS2_PLACEMENT_3D('',#539,#440,#441);
#392=AXIS2_PLACEMENT_3D('',#541,#443,#444);
#393=AXIS2_PLACEMENT_3D('',#543,#446,#447);
#394=AXIS2_PLACEMENT_3D('',#545,#449,#450);
#395=AXIS2_PLACEMENT_3D('',#554,#455,#456);
#396=AXIS2_PLACEMENT_3D('',#560,#460,#461);
#397=AXIS2_PLACEMENT_3D('',#566,#465,#466);
#398=AXIS2_PLACEMENT_3D('',#568,#468,#469);
#399=AXIS2_PLACEMENT_3D('',#570,#471,#472);
#400=AXIS2_PLACEMENT_3D('',#579,#477,#478);
#401=AXIS2_PLACEMENT_3D('',#585,#482,#483);
#402=AXIS2_PLACEMENT_3D('',#591,#487,#488);
#403=AXIS2_PLACEMENT_3D('',#593,#490,#491);
#404=AXIS2_PLACEMENT_3D('',#595,#493,#494);
#405=DIRECTION('',(0.,0.,1.));
#406=DIRECTION('',(1.,0.,0.));
#407=DIRECTION('',(0.,6.12323399573677E-17,-1.));
#408=DIRECTION('',(1.,0.,0.));
#409=DIRECTION('',(0.,1.,6.12323399573677E-17));
#410=DIRECTION('',(1.,0.,0.));
#411=DIRECTION('',(0.,1.,6.12323399573677E-17));
#412=DIRECTION('',(1.,0.,0.));
#413=DIRECTION('',(1.,0.,0.));
#414=DIRECTION('',(3.74939945665465E-33,1.,6.12323399573677E-17));
#415=DIRECTION('',(-1.,0.,0.));
#416=DIRECTION('',(-3.74939945665465E-33,-1.,-6.12323399573677E-17));
#417=DIRECTION('',(-1.,0.,6.12323399573677E-17));
#418=DIRECTION('',(0.,-1.,0.));
#419=DIRECTION('',(-6.12323399573677E-17,0.,-1.));
#420=DIRECTION('',(3.74939945665465E-33,1.,6.12323399573677E-17));
#421=DIRECTION('',(6.12323399573677E-17,0.,1.));
#422=DIRECTION('',(1.,0.,-6.12323399573677E-17));
#423=DIRECTION('',(0.,1.,0.));
#424=DIRECTION('',(-3.74939945665465E-33,-1.,-6.12323399573677E-17));
#425=DIRECTION('',(6.12323399573677E-17,0.,1.));
#426=DIRECTION('',(6.12323399573677E-17,0.,1.));
#427=DIRECTION('',(0.,-1.,0.));
#428=DIRECTION('',(1.,0.,0.));
#429=DIRECTION('',(-1.,0.,0.));
#430=DIRECTION('',(0.,-1.,0.));
#431=DIRECTION('',(0.,0.,-1.));
#432=DIRECTION('',(0.,0.,-1.));
#433=DIRECTION('',(1.,0.,0.));
#434=DIRECTION('',(0.,0.,-1.));
#435=DIRECTION('',(0.,-1.,0.));
#436=DIRECTION('',(0.,0.,-1.));
#437=DIRECTION('',(0.,0.,-1.));
#438=DIRECTION('',(0.,0.,-1.));
#439=DIRECTION('',(1.,0.,0.));
#440=DIRECTION('',(1.,0.,0.));
#441=DIRECTION('',(0.,0.,-1.));
#442=DIRECTION('',(0.,1.,6.12323399573677E-17));
#443=DIRECTION('',(1.,0.,0.));
#444=DIRECTION('',(0.,0.,-1.));
#445=DIRECTION('',(0.,1.,6.12323399573677E-17));
#446=DIRECTION('',(0.,1.,0.));
#447=DIRECTION('',(-1.,0.,0.));
#448=DIRECTION('',(1.,0.,0.));
#449=DIRECTION('',(0.,6.12323399573677E-17,-1.));
#450=DIRECTION('',(1.,0.,0.));
#451=DIRECTION('',(0.,1.,6.12323399573677E-17));
#452=DIRECTION('',(1.,0.,0.));
#453=DIRECTION('',(0.,1.,6.12323399573677E-17));
#454=DIRECTION('',(1.,0.,0.));
#455=DIRECTION('',(1.,0.,0.));
#456=DIRECTION('',(0.,0.,-1.));
#457=DIRECTION('',(0.,0.,-1.));
#458=DIRECTION('',(0.,1.,6.12323399573677E-17));
#459=DIRECTION('',(0.,0.,-1.));
#460=DIRECTION('',(1.,0.,0.));
#461=DIRECTION('',(0.,0.,-1.));
#462=DIRECTION('',(0.,0.,-1.));
#463=DIRECTION('',(0.,1.,6.12323399573677E-17));
#464=DIRECTION('',(0.,0.,-1.));
#465=DIRECTION('',(0.,-1.,0.));
#466=DIRECTION('',(0.,0.,-1.));
#467=DIRECTION('',(1.,0.,0.));
#468=DIRECTION('',(0.,-1.,0.));
#469=DIRECTION('',(0.,0.,-1.));
#470=DIRECTION('',(1.,0.,0.));
#471=DIRECTION('',(0.,6.12323399573677E-17,-1.));
#472=DIRECTION('',(1.,0.,0.));
#473=DIRECTION('',(3.74939945665465E-33,1.,6.12323399573677E-17));
#474=DIRECTION('',(1.,0.,0.));
#475=DIRECTION('',(-3.74939945665465E-33,-1.,-6.12323399573677E-17));
#476=DIRECTION('',(-1.,0.,0.));
#477=DIRECTION('',(-1.,0.,6.12323399573677E-17));
#478=DIRECTION('',(0.,-1.,0.));
#479=DIRECTION('',(6.12323399573677E-17,0.,1.));
#480=DIRECTION('',(3.74939945665465E-33,1.,6.12323399573677E-17));
#481=DIRECTION('',(6.12323399573677E-17,0.,1.));
#482=DIRECTION('',(0.,6.12323399573677E-17,-1.));
#483=DIRECTION('',(1.,0.,0.));
#484=DIRECTION('',(1.,0.,0.));
#485=DIRECTION('',(-1.,0.,0.));
#486=DIRECTION('',(-3.74939945665465E-33,-1.,-6.12323399573677E-17));
#487=DIRECTION('',(0.,1.,0.));
#488=DIRECTION('',(-1.,0.,0.));
#489=DIRECTION('',(-6.12323399573677E-17,0.,-1.));
#490=DIRECTION('',(1.,0.,-6.12323399573677E-17));
#491=DIRECTION('',(0.,1.,0.));
#492=DIRECTION('',(-6.12323399573677E-17,0.,-1.));
#493=DIRECTION('',(0.,-1.,0.));
#494=DIRECTION('',(1.,0.,0.));
#495=CARTESIAN_POINT('',(0.,0.,0.));
#496=CARTESIAN_POINT('',(0.,-0.01,0.4572));
#497=CARTESIAN_POINT('',(-0.0084,7.77650717458569E-17,0.4572));
#498=CARTESIAN_POINT('',(-0.0084,-0.0084,0.4572));
#499=CARTESIAN_POINT('',(-0.0084,0.0084,0.4572));
#500=CARTESIAN_POINT('',(-1.7347234759768E-18,0.0084,0.4572));
#501=CARTESIAN_POINT('',(0.0084,0.0084,0.4572));
#502=CARTESIAN_POINT('',(0.0084,7.77650717458569E-17,0.4572));
#503=CARTESIAN_POINT('',(0.0084,-0.0084,0.4572));
#504=CARTESIAN_POINT('',(-1.7347234759768E-18,-0.0084,0.4572));
#505=CARTESIAN_POINT('',(0.,0.0092,0.4572));
#506=CARTESIAN_POINT('',(-0.0092,0.0092,0.4572));
#507=CARTESIAN_POINT('',(0.0092,0.0092,0.4572));
#508=CARTESIAN_POINT('',(-0.0092,-0.01,0.4572));
#509=CARTESIAN_POINT('',(-0.0092,-0.0092,0.4572));
#510=CARTESIAN_POINT('',(0.,-0.0092,0.4572));
#511=CARTESIAN_POINT('',(0.0092,-0.0092,0.4572));
#512=CARTESIAN_POINT('',(0.0092,-0.01,0.4572));
#513=CARTESIAN_POINT('',(-0.0092,0.,0.4318));
#514=CARTESIAN_POINT('',(-0.0092,0.0092,0.4318));
#515=CARTESIAN_POINT('',(-0.0092,0.0092,0.4318));
#516=CARTESIAN_POINT('',(-0.0092,-0.01,0.4318));
#517=CARTESIAN_POINT('',(-0.0092,-0.0092,0.4318));
#518=CARTESIAN_POINT('',(-0.0092,-0.0092,0.4318));
#519=CARTESIAN_POINT('',(0.0092,0.,0.4318));
#520=CARTESIAN_POINT('',(0.0092,-0.01,0.4318));
#521=CARTESIAN_POINT('',(0.0092,0.0092,0.4318));
#522=CARTESIAN_POINT('',(0.0092,-0.0092,0.4318));
#523=CARTESIAN_POINT('',(0.0092,0.0092,0.4318));
#524=CARTESIAN_POINT('',(0.0092,-0.0092,0.4318));
#525=CARTESIAN_POINT('',(0.,-0.0092,0.4318));
#526=CARTESIAN_POINT('',(0.,-0.0092,0.4318));
#527=CARTESIAN_POINT('',(-1.7347234759768E-18,0.0084,1.7272));
#528=CARTESIAN_POINT('',(-0.0084,0.0084,1.7272));
#529=CARTESIAN_POINT('',(-0.0084,0.0084,0.2413));
#530=CARTESIAN_POINT('',(-1.7347234759768E-18,0.0084,0.2413));
#531=CARTESIAN_POINT('',(0.0084,0.0084,0.2413));
#532=CARTESIAN_POINT('',(0.0084,0.0084,1.7272));
#533=CARTESIAN_POINT('',(-1.7347234759768E-18,-0.0084,1.7272));
#534=CARTESIAN_POINT('',(-0.0084,-0.0084,1.7272));
#535=CARTESIAN_POINT('',(-0.0084,-0.0084,0.2413));
#536=CARTESIAN_POINT('',(0.0084,-0.0084,1.7272));
#537=CARTESIAN_POINT('',(0.0084,-0.0084,0.2413));
#538=CARTESIAN_POINT('',(-1.7347234759768E-18,-0.0084,0.2413));
#539=CARTESIAN_POINT('',(-0.0084,0.,1.7272));
#540=CARTESIAN_POINT('',(-0.0084,9.09851339426526E-17,0.2413));
#541=CARTESIAN_POINT('',(0.0084,0.,1.7272));
#542=CARTESIAN_POINT('',(0.0084,9.09851339426526E-17,0.2413));
#543=CARTESIAN_POINT('',(0.,0.0092,0.4318));
#544=CARTESIAN_POINT('',(0.,0.0092,0.4318));
#545=CARTESIAN_POINT('',(0.,-0.01,0.4318));
#546=CARTESIAN_POINT('',(0.01,7.93203731807741E-17,0.4318));
#547=CARTESIAN_POINT('',(0.01,-0.01,0.4318));
#548=CARTESIAN_POINT('',(0.01,0.01,0.4318));
#549=CARTESIAN_POINT('',(-1.7347234759768E-18,0.01,0.4318));
#550=CARTESIAN_POINT('',(-0.01,0.01,0.4318));
#551=CARTESIAN_POINT('',(-0.01,7.93203731807741E-17,0.4318));
#552=CARTESIAN_POINT('',(-0.01,-0.01,0.4318));
#553=CARTESIAN_POINT('',(0.,-0.01,0.4318));
#554=CARTESIAN_POINT('',(0.01,0.,1.7272));
#555=CARTESIAN_POINT('',(0.01,-0.01,1.7272));
#556=CARTESIAN_POINT('',(0.01,-0.01,0.2159));
#557=CARTESIAN_POINT('',(0.01,9.25404353775698E-17,0.2159));
#558=CARTESIAN_POINT('',(0.01,0.01,0.2159));
#559=CARTESIAN_POINT('',(0.01,0.01,1.7272));
#560=CARTESIAN_POINT('',(-0.01,0.,1.7272));
#561=CARTESIAN_POINT('',(-0.01,0.01,1.7272));
#562=CARTESIAN_POINT('',(-0.01,0.01,0.2159));
#563=CARTESIAN_POINT('',(-0.01,9.25404353775698E-17,0.2159));
#564=CARTESIAN_POINT('',(-0.01,-0.01,0.2159));
#565=CARTESIAN_POINT('',(-0.01,-0.01,1.7272));
#566=CARTESIAN_POINT('',(0.,-0.01,1.7272));
#567=CARTESIAN_POINT('',(0.,-0.01,0.2159));
#568=CARTESIAN_POINT('',(-1.7347234759768E-18,0.01,1.7272));
#569=CARTESIAN_POINT('',(-1.7347234759768E-18,0.01,0.2159));
#570=CARTESIAN_POINT('',(0.0025,-0.01,0.2413));
#571=CARTESIAN_POINT('',(0.0092,-0.01,0.2413));
#572=CARTESIAN_POINT('',(0.0092,-0.0092,0.2413));
#573=CARTESIAN_POINT('',(0.0092,0.0092,0.2413));
#574=CARTESIAN_POINT('',(0.0025,-0.0092,0.2413));
#575=CARTESIAN_POINT('',(-0.0092,-0.0092,0.2413));
#576=CARTESIAN_POINT('',(-0.0092,-0.01,0.2413));
#577=CARTESIAN_POINT('',(-0.0092,0.0092,0.2413));
#578=CARTESIAN_POINT('',(0.0025,0.0092,0.2413));
#579=CARTESIAN_POINT('',(0.0092,0.,0.2159));
#580=CARTESIAN_POINT('',(0.0092,0.0092,0.2159));
#581=CARTESIAN_POINT('',(0.0092,0.0092,0.2159));
#582=CARTESIAN_POINT('',(0.0092,-0.01,0.2159));
#583=CARTESIAN_POINT('',(0.0092,-0.0092,0.2159));
#584=CARTESIAN_POINT('',(0.0092,-0.0092,0.2159));
#585=CARTESIAN_POINT('',(0.0025,-0.01,0.2159));
#586=CARTESIAN_POINT('',(0.0025,-0.0092,0.2159));
#587=CARTESIAN_POINT('',(-0.0092,-0.0092,0.2159));
#588=CARTESIAN_POINT('',(0.0025,0.0092,0.2159));
#589=CARTESIAN_POINT('',(-0.0092,0.0092,0.2159));
#590=CARTESIAN_POINT('',(-0.0092,-0.01,0.2159));
#591=CARTESIAN_POINT('',(0.,-0.0092,0.2159));
#592=CARTESIAN_POINT('',(-0.0092,-0.0092,0.2159));
#593=CARTESIAN_POINT('',(-0.0092,0.,0.2159));
#594=CARTESIAN_POINT('',(-0.0092,0.0092,0.2159));
#595=CARTESIAN_POINT('',(0.,0.0092,0.2159));
#596=MECHANICAL_DESIGN_GEOMETRIC_PRESENTATION_REPRESENTATION('',(#373),
#597);
#597=(
GEOMETRIC_REPRESENTATION_CONTEXT(3)
GLOBAL_UNCERTAINTY_ASSIGNED_CONTEXT((#598))
GLOBAL_UNIT_ASSIGNED_CONTEXT((#601,#600,#599))
REPRESENTATION_CONTEXT('Part 2','TOP_LEVEL_ASSEMBLY_PART')
);
#598=UNCERTAINTY_MEASURE_WITH_UNIT(LENGTH_MEASURE(1.E-8),#601,
'DISTANCE_ACCURACY_VALUE','Maximum Tolerance applied to model');
#599=(
NAMED_UNIT(*)
SI_UNIT($,.STERADIAN.)
SOLID_ANGLE_UNIT()
);
#600=(
NAMED_UNIT(*)
PLANE_ANGLE_UNIT()
SI_UNIT($,.RADIAN.)
);
#601=(
LENGTH_UNIT()
NAMED_UNIT(*)
SI_UNIT($,.METRE.)
);
#602=PRODUCT_DEFINITION_SHAPE('','',#603);
#603=PRODUCT_DEFINITION('','',#605,#604);
#604=PRODUCT_DEFINITION_CONTEXT('',#611,'design');
#605=PRODUCT_DEFINITION_FORMATION_WITH_SPECIFIED_SOURCE('','',#607,
 .NOT_KNOWN.);
#606=PRODUCT_RELATED_PRODUCT_CATEGORY('','',(#607));
#607=PRODUCT('Part 2','Part 2','Part 2',(#609));
#608=PRODUCT_CATEGORY('','');
#609=PRODUCT_CONTEXT('',#611,'mechanical');
#610=APPLICATION_PROTOCOL_DEFINITION('international standard',
'ap242_managed_model_based_3d_engineering',2020,#611);
#611=APPLICATION_CONTEXT('managed model based 3d engineering');
ENDSEC;
END-ISO-10303-21;
